<svg width="34" height="34" viewBox="0 0 34 34" fill="none" xmlns="http://www.w3.org/2000/svg">
<g id="Group 34187">
<circle id="Ellipse 96" cx="17" cy="17" r="16.5" fill="white" stroke="#E6E8EB"/>
<path id="Subtract" fill-rule="evenodd" clip-rule="evenodd" d="M22.3085 15.4517L23.9517 13.8091L23.9517 13.8091L23.9517 13.8091C24.3842 13.3767 24.6005 13.1605 24.7311 12.9361C25.0934 12.314 25.0934 11.5453 24.7311 10.9232C24.6005 10.6988 24.3842 10.4826 23.9517 10.0503L23.9517 10.0502L23.9517 10.0502C23.5194 9.61809 23.3032 9.40203 23.0789 9.27145C22.457 8.90952 21.6887 8.90952 21.0668 9.27145C20.8424 9.40203 20.6263 9.61809 20.194 10.0502L20.194 10.0502L18.5283 11.7154C19.4318 13.2679 20.7349 14.5607 22.3085 15.4517ZM17.0736 13.1696L10.7131 19.5279C10.2879 19.953 10.0753 20.1655 9.93554 20.4267C9.79575 20.6878 9.73678 20.9826 9.61883 21.5721L9.06388 24.3459C8.99734 24.6785 8.96406 24.8448 9.05867 24.9395C9.15327 25.0341 9.31957 25.0008 9.65219 24.9343L12.428 24.3793L12.428 24.3793L12.4281 24.3793C13.0174 24.2615 13.312 24.2026 13.5731 24.0629C13.8341 23.9232 14.0467 23.7108 14.4717 23.2859L20.8499 16.9098C19.3274 15.9542 18.0388 14.6746 17.0736 13.1696Z" fill="#7B8287"/>
</g>
</svg>
