<svg width="20" height="20" viewBox="0 0 20 20" fill="none" xmlns="http://www.w3.org/2000/svg">
<g id="Export">
<path id="Vector 9" d="M10.0001 1L9.293 0.292893C9.68352 -0.0976314 10.3167 -0.0976314 10.7072 0.292893L10.0001 1ZM11.0001 12.5714C11.0001 13.1237 10.5524 13.5714 10.0001 13.5714C9.44782 13.5714 9.0001 13.1237 9.0001 12.5714L11.0001 12.5714ZM2.86443 6.72146L9.293 0.292893L10.7072 1.70711L4.27864 8.13568L2.86443 6.72146ZM10.7072 0.292893L17.1358 6.72146L15.7216 8.13568L9.293 1.70711L10.7072 0.292893ZM11.0001 1L11.0001 12.5714L9.0001 12.5714L9.0001 1L11.0001 1Z" fill="#A6ABAF"/>
<path id="Vector 114" d="M1 15.1427L1 16.4284C1 17.8486 2.15127 18.9998 3.57143 18.9998L16.4286 18.9998C17.8487 18.9998 19 17.8486 19 16.4284V15.1427" stroke="#A6ABAF" stroke-width="2"/>
</g>
</svg>
