<svg width="14" height="14" viewBox="0 0 14 14" fill="none" xmlns="http://www.w3.org/2000/svg">
<g id="Outline/x">
<path id="Icon (Stroke)" fill-rule="evenodd" clip-rule="evenodd" d="M3.08751 3.08748C3.31532 2.85967 3.68466 2.85967 3.91247 3.08748L6.99999 6.175L10.0875 3.08748C10.3153 2.85967 10.6847 2.85967 10.9125 3.08748C11.1403 3.31529 11.1403 3.68463 10.9125 3.91244L7.82495 6.99996L10.9125 10.0875C11.1403 10.3153 11.1403 10.6846 10.9125 10.9124C10.6847 11.1402 10.3153 11.1402 10.0875 10.9124L6.99999 7.82492L3.91247 10.9124C3.68466 11.1402 3.31532 11.1402 3.08751 10.9124C2.85971 10.6846 2.85971 10.3153 3.08751 10.0875L6.17503 6.99996L3.08751 3.91244C2.85971 3.68463 2.85971 3.31529 3.08751 3.08748Z" fill="#A6ABAF"/>
</g>
</svg>
