<svg width="20" height="20" viewBox="0 0 20 20" fill="none" xmlns="http://www.w3.org/2000/svg">
<g id="Export">
<path id="Vector 9" d="M10 1L9.29291 0.292893C9.68343 -0.0976314 10.3166 -0.0976314 10.7071 0.292893L10 1ZM11 12.5714C11 13.1237 10.5523 13.5714 10 13.5714C9.44773 13.5714 9.00001 13.1237 9.00001 12.5714L11 12.5714ZM2.86434 6.72146L9.29291 0.292893L10.7071 1.70711L4.27855 8.13568L2.86434 6.72146ZM10.7071 0.292893L17.1357 6.72146L15.7215 8.13568L9.29291 1.70711L10.7071 0.292893ZM11 1L11 12.5714L9.00001 12.5714L9.00001 1L11 1Z" fill="#EDF0F3"/>
<path id="Vector 114" d="M1 15.1426L1 16.4283C1 17.8485 2.15127 18.9997 3.57143 18.9997L16.4286 18.9997C17.8487 18.9997 19 17.8485 19 16.4283V15.1426" stroke="#EDF0F3" stroke-width="2"/>
</g>
</svg>
