<svg width="22" height="20" viewBox="0 0 22 20" fill="none" xmlns="http://www.w3.org/2000/svg">
<path id="Icon" d="M9.7208 1.8734C10.1234 0.708868 11.8766 0.708868 12.2792 1.8734L13.7178 6.0342C13.8979 6.55499 14.4143 6.9076 14.997 6.9076H19.6524C20.9554 6.9076 21.4971 8.47446 20.443 9.19418L16.6767 11.7657C16.2053 12.0876 16.008 12.6581 16.1881 13.1789L17.6267 17.3397C18.0293 18.5042 16.611 19.4726 15.5569 18.7529L11.7906 16.1814C11.3192 15.8595 10.6808 15.8595 10.2094 16.1814L6.44311 18.7529C5.389 19.4726 3.97069 18.5042 4.37333 17.3397L5.81193 13.1789C5.99199 12.6581 5.79473 12.0876 5.32332 11.7657L1.55702 9.19418C0.502902 8.47446 1.04465 6.9076 2.3476 6.9076H7.00301C7.58571 6.9076 8.10214 6.55499 8.28221 6.0342L9.7208 1.8734Z" stroke="#EDF0F3" stroke-width="2"/>
</svg>
