<svg width="24" height="22" viewBox="0 0 24 22" fill="none" xmlns="http://www.w3.org/2000/svg">
<path id="Icon" d="M10.465 1.06748C10.9481 -0.355829 13.0519 -0.355828 13.535 1.06749L15.2614 6.15291C15.4774 6.78944 16.0971 7.2204 16.7964 7.2204H22.3829C23.9464 7.2204 24.5965 9.13545 23.3316 10.0151L18.812 13.1581C18.2463 13.5515 18.0096 14.2488 18.2257 14.8853L19.952 19.9707C20.4352 21.394 18.7332 22.5776 17.4683 21.6979L12.9487 18.555C12.383 18.1616 11.617 18.1616 11.0513 18.555L6.53173 21.6979C5.26679 22.5776 3.56483 21.394 4.04799 19.9707L5.77431 14.8853C5.99039 14.2488 5.75368 13.5515 5.18798 13.1581L0.668421 10.0151C-0.596517 9.13545 0.0535755 7.2204 1.61713 7.2204H7.20361C7.90285 7.2204 8.52257 6.78944 8.73865 6.15291L10.465 1.06748Z" fill="url(#paint0_linear_2774_2768)"/>
<defs>
<linearGradient id="paint0_linear_2774_2768" x1="9.5" y1="8" x2="21.5" y2="24" gradientUnits="userSpaceOnUse">
<stop stop-color="#FEE47B"/>
<stop offset="1" stop-color="#F9C200"/>
</linearGradient>
</defs>
</svg>
