<svg width="21" height="22" viewBox="0 0 21 22" fill="none" xmlns="http://www.w3.org/2000/svg">
<path id="Shape" fill-rule="evenodd" clip-rule="evenodd" d="M13.2794 19.4285C13.2794 20.8486 12.0351 21.9999 10.5 21.9999C9.02641 21.9999 7.82064 20.9389 7.72653 19.5975L7.72062 19.4285H13.2794ZM10.4897 0C14.5791 0 17.1746 2.62865 17.8942 6.85115L18.8879 13.5203C19.5877 15.9881 21 15.1455 21 16.4988C21 17.36 20.0777 17.7636 18.2332 17.7096L17.9634 17.6988H3.03657L2.76679 17.7096C0.922265 17.7636 0 17.36 0 16.4988C0 15.1939 1.31321 15.9308 2.03447 13.7723L2.11207 13.5203C2.11207 13.5203 2.88315 8.49453 3.10581 6.85115C3.80692 2.73692 6.28904 0.13585 10.1987 0.00516726L10.4897 0Z" fill="#50BF50"/>
</svg>
