<svg width="36" height="36" viewBox="0 0 36 36" fill="none" xmlns="http://www.w3.org/2000/svg">
<g id="Component 9">
<path id="Oval" fill-rule="evenodd" clip-rule="evenodd" d="M18 36C27.9411 36 36 27.9411 36 18C36 8.05887 27.9411 0 18 0C8.05887 0 0 8.05887 0 18C0 27.9411 8.05887 36 18 36Z" fill="#67CB83"/>
<path id="Shape" fill-rule="evenodd" clip-rule="evenodd" d="M20.025 25.2C20.025 26.3184 19.1184 27.225 18 27.225C16.9264 27.225 16.0479 26.3895 15.9793 25.3331L15.975 25.2H20.025ZM17.9925 9.89999C20.9719 9.89999 22.863 11.97 23.3872 15.2952L24.1112 20.5472C24.6211 22.4906 25.65 21.827 25.65 22.8927C25.65 23.5709 24.9781 23.8887 23.6342 23.8462L23.4376 23.8377H12.5624L12.3658 23.8462C11.0219 23.8887 10.35 23.5709 10.35 22.8927C10.35 21.8651 11.3068 22.4454 11.8323 20.7456L11.8888 20.5472C11.8888 20.5472 12.4506 16.5894 12.6128 15.2952C13.1236 12.0553 14.932 10.007 17.7805 9.90406L17.9925 9.89999Z" fill="white"/>
</g>
</svg>
