<svg width="78" height="63" viewBox="0 0 78 63" fill="none" xmlns="http://www.w3.org/2000/svg">
<path d="M0.213 27.4324C1.22392 28.7426 2.50238 29.8454 3.9207 30.6919C5.35879 31.5507 6.94585 32.112 8.57395 32.4811C10.3298 32.8777 12.23 33.0195 13.8839 32.1791C15.3843 31.418 16.4743 29.8835 16.5929 28.192C16.7069 26.5783 15.8009 24.8471 14.3065 24.1775C12.5796 23.4027 10.573 23.9243 9.24283 25.2162C8.01757 26.4059 7.38518 28.1005 7.2362 29.7783C7.0933 31.3997 7.46118 33.0637 8.21823 34.499C9.74753 37.397 13.0752 39.1282 16.3192 38.7957C16.7403 38.753 17.1584 38.6859 17.5703 38.5822C17.9565 38.4846 18.2255 38.03 18.1009 37.6441C17.9717 37.2445 17.5795 37.0066 17.166 37.1118C16.9988 37.1545 16.83 37.1911 16.6598 37.2216C16.6217 37.2277 16.5837 37.2354 16.5457 37.2415C16.5366 37.243 16.3481 37.275 16.4758 37.2537C16.602 37.2323 16.4165 37.2613 16.4059 37.2613C16.3481 37.2674 16.2919 37.2735 16.2341 37.2796C15.8905 37.3101 15.5439 37.3177 15.1989 37.3009C15.0256 37.2918 14.8538 37.2765 14.682 37.2582C14.5406 37.243 14.6896 37.2613 14.7124 37.2628C14.6653 37.2582 14.6166 37.2491 14.5695 37.2415C14.4753 37.2262 14.3795 37.2094 14.2852 37.1911C13.9356 37.1225 13.592 37.031 13.2546 36.9151C13.1041 36.8632 12.9004 36.822 12.7696 36.7305C12.7864 36.7427 12.9232 36.7976 12.7924 36.7396C12.7575 36.7244 12.7225 36.7076 12.6875 36.6924C12.5918 36.6481 12.496 36.6024 12.4017 36.5536C12.0856 36.3919 11.78 36.2073 11.4896 36.0029C11.4273 35.9587 11.365 35.9129 11.3027 35.8672C11.1506 35.7558 11.3878 35.9389 11.2966 35.8626C11.2601 35.8321 11.2221 35.8031 11.1841 35.7711C11.0503 35.6613 10.9211 35.5454 10.7964 35.4249C10.6718 35.3044 10.5502 35.1793 10.4346 35.0496C10.3769 34.9841 10.3191 34.9185 10.2629 34.8514C10.2325 34.8148 10.2021 34.7766 10.1717 34.7385C10.0698 34.6165 10.2507 34.8483 10.1489 34.7095C9.94363 34.4273 9.75209 34.136 9.58335 33.8294C9.49974 33.6769 9.42069 33.5198 9.34772 33.3627C9.331 33.3276 9.31579 33.2925 9.29907 33.2559C9.29603 33.2498 9.22307 33.0729 9.26867 33.1873C9.31428 33.3002 9.24435 33.1232 9.24131 33.1171C9.22307 33.0714 9.20634 33.0271 9.18962 32.9814C9.06497 32.6443 8.96312 32.2996 8.88559 31.9488C8.84758 31.7779 8.81566 31.6056 8.7883 31.4332C8.78222 31.3951 8.77461 31.3554 8.77157 31.3173C8.7883 31.4973 8.78069 31.3859 8.77613 31.3463C8.76549 31.2395 8.75333 31.1343 8.74573 31.0275C8.71837 30.6691 8.71685 30.3091 8.73965 29.9522C8.74573 29.8652 8.75333 29.7783 8.76093 29.6914C8.76549 29.6471 8.77765 29.3619 8.77309 29.577C8.77613 29.4 8.8339 29.2063 8.87343 29.034C8.95247 28.6786 9.05889 28.3293 9.19266 27.9907C9.20786 27.9541 9.22155 27.9159 9.23827 27.8793C9.16834 28.0288 9.2185 27.9282 9.23219 27.8961C9.27475 27.8061 9.3158 27.7146 9.35988 27.6261C9.44045 27.466 9.52862 27.3089 9.62287 27.1579C9.7156 27.0069 9.81441 26.8544 9.92539 26.7171C9.80833 26.8605 9.98315 26.6515 10.012 26.6179C10.0835 26.5356 10.1565 26.4563 10.2325 26.3785C10.3495 26.2595 10.4726 26.1451 10.6019 26.0399C10.6383 26.0109 10.725 25.9148 10.611 26.0307C10.6353 26.0048 10.6794 25.9804 10.7068 25.9605C10.7873 25.9026 10.8709 25.8477 10.9561 25.7973C11.0336 25.7501 11.1126 25.7058 11.1932 25.6646C11.2343 25.6433 11.4836 25.5335 11.3148 25.6021C11.4942 25.5304 11.6751 25.4694 11.8621 25.4221C11.9503 25.3993 12.0384 25.3809 12.1281 25.3642C12.1646 25.3581 12.2087 25.3459 12.2467 25.3443C12.0688 25.352 12.2072 25.3504 12.2543 25.3459C12.4443 25.3291 12.6343 25.3245 12.8244 25.3367C12.8639 25.3398 12.9034 25.3443 12.9429 25.3459C13.136 25.3581 12.8289 25.3215 12.9475 25.3459C13.0357 25.3626 13.1238 25.3779 13.2105 25.3993C13.288 25.4176 13.364 25.4404 13.44 25.4648C13.4872 25.4801 13.5328 25.4999 13.5799 25.5152C13.6316 25.535 13.6179 25.5289 13.5373 25.4953C13.5647 25.5075 13.592 25.5197 13.6194 25.5319C13.7638 25.6006 13.9037 25.6814 14.0359 25.7729C14.0451 25.779 14.1849 25.8889 14.0891 25.8095C13.9934 25.7302 14.1302 25.8462 14.1378 25.8523C14.2062 25.9117 14.27 25.9728 14.3339 26.0383C14.3841 26.0902 14.4327 26.1436 14.4783 26.1985C14.4859 26.2076 14.5893 26.3495 14.5193 26.2488C14.4494 26.1466 14.5498 26.2946 14.5558 26.3022C14.6486 26.4364 14.7307 26.5768 14.8036 26.7232C14.8234 26.7644 14.8416 26.8056 14.8614 26.8467C14.9131 26.9489 14.7975 26.6713 14.8583 26.8406C14.8827 26.9093 14.9085 26.9764 14.9313 27.0465C14.9876 27.2204 15.0256 27.3974 15.059 27.5773C15.0727 27.6475 15.0377 27.6658 15.0544 27.5377C15.0514 27.5667 15.062 27.6155 15.0651 27.646C15.0727 27.7283 15.0757 27.8092 15.0773 27.8915C15.0788 27.9739 15.0773 28.0547 15.0727 28.1371C15.0712 28.1737 15.0681 28.2103 15.0651 28.2454C15.062 28.282 15.059 28.3186 15.0544 28.3537C15.059 28.3217 15.062 28.2912 15.0666 28.2591C15.0894 28.3995 14.9952 28.6206 14.9541 28.7564C14.9298 28.8372 14.9024 28.9181 14.8735 28.9974C14.8568 29.0416 14.8219 29.1682 14.8766 28.9989C14.8599 29.0523 14.8295 29.1041 14.8067 29.1529C14.7367 29.2978 14.6577 29.4366 14.5726 29.5724C14.5269 29.6441 14.4783 29.7142 14.4297 29.7829C14.3415 29.908 14.4449 29.7722 14.4464 29.7646C14.4433 29.7905 14.3552 29.8759 14.3384 29.8958C14.2275 30.0254 14.1089 30.1489 13.9842 30.2649C13.928 30.3167 13.8718 30.3671 13.814 30.4159C13.8079 30.4204 13.6635 30.5394 13.7577 30.4632C13.8444 30.3945 13.6924 30.5104 13.6741 30.5226C13.5343 30.6218 13.3899 30.7118 13.2409 30.7941C13.1664 30.8353 13.0904 30.8734 13.0129 30.9101C12.9749 30.9284 12.9353 30.9451 12.8973 30.9619C13.0585 30.8872 12.8684 30.9711 12.8456 30.9802C12.6693 31.0458 12.4899 31.1007 12.306 31.1449C12.2254 31.1648 12.1433 31.1831 12.0612 31.1983C12.0095 31.2075 11.9579 31.2166 11.9062 31.2258C11.8758 31.2304 11.8438 31.2365 11.8134 31.2395C11.9016 31.2273 11.9168 31.2258 11.859 31.2319C11.4668 31.2654 11.0792 31.2837 10.684 31.2639C10.4909 31.2532 10.2978 31.2365 10.1063 31.2151C10.0637 31.2105 10.0212 31.2044 9.97859 31.1999C10.1382 31.2197 10.0212 31.206 9.98923 31.1999C9.88282 31.1831 9.77641 31.1663 9.67 31.148C8.90687 31.0138 8.15134 30.8185 7.41102 30.5898C7.05378 30.4799 6.69958 30.3533 6.35298 30.213C6.30585 30.1947 6.25873 30.1749 6.21312 30.155C6.23745 30.1657 6.35754 30.2176 6.2268 30.1611C6.14319 30.1245 6.05959 30.0879 5.9775 30.0498C5.80268 29.9705 5.62938 29.8866 5.4576 29.7981C4.79024 29.458 4.15177 29.0614 3.5513 28.6115C3.5133 28.5825 3.33392 28.4422 3.46465 28.5459C3.3856 28.4833 3.30655 28.4193 3.2275 28.3552C3.08765 28.2393 2.94931 28.1203 2.81402 27.9983C2.52822 27.7405 2.25307 27.4706 1.99312 27.1869C1.74533 26.9184 1.51123 26.6393 1.28776 26.3495C1.04301 26.0322 0.466869 26.0719 0.213 26.3495C-0.0940748 26.6896 -0.0469495 27.0938 0.213 27.4324Z" fill="#25292C"/>
<path d="M74.2624 28.529H68.203C67.2027 26.1588 65.7555 23.9746 63.9556 22.0512V6.4248C58.2596 6.4248 53.3372 9.74837 51.0098 14.5682C48.6688 13.9734 46.1924 13.6515 43.6294 13.6515C29.1817 13.6515 17.4688 23.7992 17.4688 36.3171C17.4688 42.6363 20.4544 48.3499 25.2688 52.4606V61.9737H35.7488V57.9348C38.2358 58.615 40.8825 58.9826 43.6294 58.9826C46.3764 58.9826 49.023 58.615 51.51 57.9348V61.7434H61.9901V52.459C64.7188 50.1284 66.8622 47.2838 68.2045 44.1051H74.2639C75.775 44.1051 77.0002 42.8757 77.0002 41.3596V31.273C76.9987 29.7569 75.7735 28.529 74.2624 28.529Z" fill="white" stroke="#25292C" strokeWidth="2" stroke-miterlimit="10"/>
<path d="M57.2225 31.3416C58.1384 31.3416 58.881 30.5965 58.881 29.6775C58.881 28.7585 58.1384 28.0134 57.2225 28.0134C56.3065 28.0134 55.564 28.7585 55.564 29.6775C55.564 30.5965 56.3065 31.3416 57.2225 31.3416Z" fill="#25292C"/>
<path d="M57.2225 40.835C59.6497 40.835 61.6173 39.8236 61.6173 38.5761C61.6173 37.3285 59.6497 36.3171 57.2225 36.3171C54.7953 36.3171 52.8276 37.3285 52.8276 38.5761C52.8276 39.8236 54.7953 40.835 57.2225 40.835Z" fill="#F3FCF2"/>
<path d="M35.2451 21.1195C40.5946 18.4564 45.6659 18.5891 50.4985 21.1195" stroke="#25292C" strokeWidth="2" stroke-miterlimit="10" strokeLinecap="round"/>
<path d="M42.8721 15.9416C46.9843 15.9416 50.3179 12.5968 50.3179 8.47078C50.3179 4.34478 46.9843 1 42.8721 1C38.7599 1 35.4263 4.34478 35.4263 8.47078C35.4263 12.5968 38.7599 15.9416 42.8721 15.9416Z" fill="#50BF50" stroke="#25292C" strokeWidth="2" stroke-miterlimit="10"/>
<path d="M42.872 12.4792C45.0784 12.4792 46.867 10.6846 46.867 8.47082C46.867 6.25703 45.0784 4.4624 42.872 4.4624C40.6656 4.4624 38.877 6.25703 38.877 8.47082C38.877 10.6846 40.6656 12.4792 42.872 12.4792Z" fill="#50BF50" stroke="#25292C" strokeWidth="2" stroke-miterlimit="10"/>
<path d="M33.0105 56.1939H18.6662C18.3302 56.1939 18.0581 55.9208 18.0581 55.5838V53.9197C18.0581 53.5826 18.3302 53.3096 18.6662 53.3096H33.0105C33.3465 53.3096 33.6186 53.5826 33.6186 53.9197V55.5838C33.6186 55.9208 33.345 56.1939 33.0105 56.1939Z" fill="#25292C"/>
<path d="M28.222 59.5969H13.8776C13.5416 59.5969 13.2695 59.3239 13.2695 58.9868V57.3228C13.2695 56.9857 13.5416 56.7126 13.8776 56.7126H28.222C28.5579 56.7126 28.83 56.9857 28.83 57.3228V58.9868C28.83 59.3239 28.5579 59.5969 28.222 59.5969Z" fill="#50BF50" stroke="#25292C" strokeWidth="2" stroke-miterlimit="10"/>
<path d="M33.0105 63H18.6662C18.3302 63 18.0581 62.727 18.0581 62.3899V60.7258C18.0581 60.3887 18.3302 60.1157 18.6662 60.1157H33.0105C33.3465 60.1157 33.6186 60.3887 33.6186 60.7258V62.3899C33.6186 62.727 33.345 63 33.0105 63Z" fill="#25292C"/>
</svg>
