<svg width="20" height="20" viewBox="0 0 20 20" fill="none" xmlns="http://www.w3.org/2000/svg">
<circle cx="10" cy="10" r="10" fill="#E6E8EB"/>
<path fill-rule="evenodd" clip-rule="evenodd" d="M6.0876 6.08748C6.31541 5.85967 6.68475 5.85967 6.91256 6.08748L10.0001 9.175L13.0876 6.08748C13.3154 5.85967 13.6848 5.85967 13.9126 6.08748C14.1404 6.31529 14.1404 6.68463 13.9126 6.91244L10.825 9.99996L13.9126 13.0875C14.1404 13.3153 14.1404 13.6846 13.9126 13.9124C13.6848 14.1402 13.3154 14.1402 13.0876 13.9124L10.0001 10.8249L6.91256 13.9124C6.68475 14.1402 6.31541 14.1402 6.0876 13.9124C5.8598 13.6846 5.8598 13.3153 6.0876 13.0875L9.17512 9.99996L6.0876 6.91244C5.8598 6.68463 5.8598 6.31529 6.0876 6.08748Z" fill="white" stroke="white" stroke-linecap="round" stroke-linejoin="round"/>
</svg>
