<svg width="18" height="16" viewBox="0 0 18 16" fill="none" xmlns="http://www.w3.org/2000/svg">
<path id="Subtract" fill-rule="evenodd" clip-rule="evenodd" d="M8.13392 0.5C8.51882 -0.166667 9.48107 -0.166666 9.86597 0.5L17.6602 14C18.0451 14.6667 17.564 15.5 16.7942 15.5H1.20572C0.435915 15.5 -0.04521 14.6667 0.33969 14L8.13392 0.5ZM7.99994 5C7.99994 4.44772 8.44766 4 8.99994 4C9.55223 4 9.99994 4.44772 9.99994 5V9C9.99994 9.55228 9.55223 10 8.99994 10C8.44766 10 7.99994 9.55228 7.99994 9V5ZM8.99994 13C9.55223 13 9.99994 12.5523 9.99994 12C9.99994 11.4477 9.55223 11 8.99994 11C8.44766 11 7.99994 11.4477 7.99994 12C7.99994 12.5523 8.44766 13 8.99994 13Z" fill="#FEE47B"/>
</svg>
