<svg xmlns="http://www.w3.org/2000/svg" width="24" height="22" fill="none"><path fill="url(#a)" d="M10.465 1.067c.483-1.423 2.587-1.423 3.07 0l1.726 5.086c.216.636.836 1.067 1.535 1.067h5.587c1.563 0 2.213 1.915.949 2.795l-4.52 3.143a1.508 1.508 0 0 0-.586 1.727l1.726 5.086c.483 1.423-1.219 2.607-2.484 1.727l-4.52-3.143a1.673 1.673 0 0 0-1.897 0l-4.52 3.143c-1.264.88-2.966-.304-2.483-1.727l1.726-5.086a1.508 1.508 0 0 0-.586-1.727l-4.52-3.143c-1.265-.88-.614-2.795.95-2.795h5.586c.699 0 1.319-.43 1.535-1.067l1.726-5.086Z"/><defs><linearGradient id="a" x1="9.5" x2="21.5" y1="8" y2="24" gradientUnits="userSpaceOnUse"><stop stop-color="#FEE47B"/><stop offset="1" stop-color="#F9C200"/></linearGradient></defs></svg>