<svg width="24" height="24" viewBox="0 0 24 24" fill="none" xmlns="http://www.w3.org/2000/svg">
<g id="Book_open_alt_light">
<path id="Vector 383" d="M12 6.5V18.5" stroke="#222222" stroke-linecap="round"/>
<path id="Vector 388" d="M20.5 6.5V18.5" stroke="#222222" stroke-linecap="round"/>
<path id="Vector 389" d="M3.5 6.5V18.5" stroke="#222222" stroke-linecap="round"/>
<path id="Vector 384" d="M20.5 18.5C20.5 18.5 19.5 16.5 16 16.5C12.5 16.5 12 18.5 12 18.5" stroke="#222222" stroke-linecap="round"/>
<path id="Vector 386" d="M3.5 18.5C3.5 18.5 4.5 16.5 8 16.5C11.5 16.5 12 18.5 12 18.5" stroke="#222222" stroke-linecap="round"/>
<path id="Vector 385" d="M20.5 6.5C20.5 6.5 19.5 4.5 16 4.5C12.5 4.5 12 6.5 12 6.5" stroke="#222222" stroke-linecap="round"/>
<path id="Vector 387" d="M3.5 6.5C3.5 6.5 4.5 4.5 8 4.5C11.5 4.5 12 6.5 12 6.5" stroke="#222222" stroke-linecap="round"/>
</g>
</svg>
