<svg width="152" height="152" viewBox="0 0 152 152" fill="none" xmlns="http://www.w3.org/2000/svg">
<g opacity="0.15">
<rect x="43" y="44" width="50" height="50" rx="5" fill="#B5B5B5"/>
</g>
<path d="M67.2984 70.4186C66.7825 70.4186 66.2877 70.2137 65.9229 69.8489C65.5581 69.4841 65.3532 68.9893 65.3532 68.4734C65.3502 68.2161 65.3984 67.9608 65.4949 67.7222C65.5913 67.4837 65.7342 67.2666 65.9151 67.0837C66.096 66.9007 66.3114 66.7555 66.5489 66.6563C66.7863 66.5572 67.0411 66.5062 67.2984 66.5062H69.4964" stroke="#B6B6B6" stroke-width="1.5" stroke-linecap="round" stroke-linejoin="round"/>
<path d="M67.2985 70.4185H68.2876C68.8035 70.4185 69.2983 70.6235 69.6631 70.9883C70.0279 71.3531 70.2329 71.8479 70.2329 72.3638C70.2329 72.8797 70.0279 73.3745 69.6631 73.7393C69.2983 74.1041 68.8035 74.309 68.2876 74.309H66.0347" stroke="#B6B6B6" stroke-width="1.5" stroke-linecap="round" stroke-linejoin="round"/>
<path d="M67.771 65.2641V66.528" stroke="#B6B6B6" stroke-width="1.5" stroke-linecap="round" stroke-linejoin="round"/>
<path d="M67.771 74.2983V75.5622" stroke="#B6B6B6" stroke-width="1.5" stroke-linecap="round" stroke-linejoin="round"/>
<path d="M77.8152 66.5068C78.2982 67.7469 78.5442 69.0665 78.5406 70.3973C78.5406 72.5274 77.9089 74.6098 76.7255 76.3809C75.542 78.1521 73.8599 79.5326 71.8919 80.3477C69.9239 81.1629 67.7583 81.3762 65.6691 80.9606C63.5799 80.5451 61.6608 79.5193 60.1545 78.013C58.6483 76.5068 57.6225 74.5877 57.207 72.4985C56.7914 70.4092 57.0047 68.2437 57.8198 66.2757C58.635 64.3077 60.0155 62.6256 61.7866 61.4421C63.5578 60.2587 65.6401 59.627 67.7703 59.627H73.7819" stroke="#B6B6B6" stroke-width="1.5" stroke-linecap="round" stroke-linejoin="round"/>
<path d="M71.1669 62.2862L73.8045 59.6486L71.1669 57" stroke="#B6B6B6" stroke-width="1.5" stroke-linecap="round" stroke-linejoin="round"/>
</svg>
