
<svg width="24" height="26" viewBox="0 0 24 26" fill="none" xmlns="http://www.w3.org/2000/svg">
<g id="Group 7763">
<path id="Vector" d="M11.2984 14.4186C10.7825 14.4186 10.2877 14.2137 9.92291 13.8489C9.55811 13.4841 9.35315 12.9893 9.35315 12.4734C9.35024 12.2161 9.39843 11.9608 9.49489 11.7222C9.59134 11.4837 9.73418 11.2666 9.9151 11.0837C10.096 10.9007 10.3114 10.7555 10.5489 10.6563C10.7863 10.5572 11.0411 10.5062 11.2984 10.5062H13.4964" stroke="current" stroke-width="1.5" stroke-linecap="round" stroke-linejoin="round"/>
<path id="Vector_2" d="M11.2985 14.4185H12.2876C12.8035 14.4185 13.2983 14.6235 13.6631 14.9883C14.0279 15.3531 14.2329 15.8479 14.2329 16.3638C14.2329 16.8797 14.0279 17.3745 13.6631 17.7393C13.2983 18.1041 12.8035 18.309 12.2876 18.309H10.0347" stroke="current" stroke-width="1.5" stroke-linecap="round" stroke-linejoin="round"/>
<path id="Vector_3" d="M11.771 9.26411V10.528" stroke="current" stroke-width="1.5" stroke-linecap="round" stroke-linejoin="round"/>
<path id="Vector_4" d="M11.771 18.2983V19.5622" stroke="current" stroke-width="1.5" stroke-linecap="round" stroke-linejoin="round"/>
<path id="Vector_5" d="M21.8152 10.5068C22.2982 11.7469 22.5442 13.0665 22.5406 14.3973C22.5406 16.5274 21.9089 18.6098 20.7255 20.3809C19.542 22.1521 17.8599 23.5326 15.8919 24.3477C13.9239 25.1629 11.7583 25.3762 9.6691 24.9606C7.57987 24.5451 5.66079 23.5193 4.15453 22.013C2.64828 20.5068 1.62253 18.5877 1.20695 16.4985C0.791379 14.4092 1.00467 12.2437 1.81985 10.2757C2.63502 8.30767 4.01548 6.62559 5.78665 5.44213C7.55781 4.25868 9.64013 3.62701 11.7703 3.62701H17.7819" stroke="current" stroke-width="1.5" stroke-linecap="round" stroke-linejoin="round"/>
<path id="Vector_6" d="M15.1669 6.2862L17.8045 3.64857L15.1669 0.999969" stroke="current" stroke-width="1.5" stroke-linecap="round" stroke-linejoin="round"/>
</g>
</svg>
