<svg width="25" height="25" viewBox="0 0 25 25" fill="none" xmlns="http://www.w3.org/2000/svg">
<path fill-rule="evenodd" clip-rule="evenodd" d="M12.75 3.5C7.77944 3.5 3.75 7.52944 3.75 12.5C3.75 17.4706 7.77944 21.5 12.75 21.5C17.7206 21.5 21.75 17.4706 21.75 12.5C21.75 7.52944 17.7206 3.5 12.75 3.5ZM1.75 12.5C1.75 6.42487 6.67487 1.5 12.75 1.5C18.8251 1.5 23.75 6.42487 23.75 12.5C23.75 18.5751 18.8251 23.5 12.75 23.5C6.67487 23.5 1.75 18.5751 1.75 12.5Z" fill="#484C52"/>
<path fill-rule="evenodd" clip-rule="evenodd" d="M12.75 5.5C13.3023 5.5 13.75 5.94772 13.75 6.5V11.882L17.1972 13.6056C17.6912 13.8526 17.8914 14.4532 17.6444 14.9472C17.3974 15.4412 16.7968 15.6414 16.3028 15.3944L12.3028 13.3944C11.964 13.225 11.75 12.8788 11.75 12.5V6.5C11.75 5.94772 12.1977 5.5 12.75 5.5Z" fill="#484C52"/>
</svg>
