<svg width="84" height="25" viewBox="0 0 84 25" fill="none" xmlns="http://www.w3.org/2000/svg">
<g clip-path="url(#clip0_737_6420)">
<path d="M8.27636 0.088623H3.24605C1.52882 0.088623 0.136719 1.47525 0.136719 3.18575C0.136719 4.89624 1.52882 6.28287 3.24605 6.28287H8.27636C9.9936 6.28287 11.3857 4.89624 11.3857 3.18575C11.3857 1.47525 9.9936 0.088623 8.27636 0.088623Z" fill="#50BF50"/>
<path d="M15.14 5.72426C16.5481 5.72426 17.6896 4.58724 17.6896 3.18464C17.6896 1.78205 16.5481 0.64502 15.14 0.64502C13.7318 0.64502 12.5903 1.78205 12.5903 3.18464C12.5903 4.58724 13.7318 5.72426 15.14 5.72426Z" fill="#50BF50"/>
<path d="M4.9585 10.8814C5.5032 11.0924 7.90592 11.9566 11.1332 11.2328C12.2766 10.976 13.2401 10.5837 14.0256 10.1666C15.3489 9.46175 16.9821 10.2174 17.3099 11.6748C17.5068 12.5489 17.169 13.4549 16.4483 13.9905C15.5358 14.6684 14.1186 15.4878 12.1896 15.9198C8.96235 16.6436 6.55964 15.7794 6.01493 15.5684L4.9585 10.8814Z" fill="#50BF50"/>
<path d="M6.21867 3.18575C6.21867 1.47525 4.82657 0.088623 3.10933 0.088623C1.3921 0.088623 0 1.47525 0 3.18575V21.7675C0 23.478 1.3921 24.8646 3.10933 24.8646C4.82657 24.8646 6.21867 23.478 6.21867 21.7675V3.18575Z" fill="#50BF50"/>
<path d="M47.998 9.37508C47.998 7.93653 49.1684 6.77075 50.6126 6.77075C52.0569 6.77075 53.2272 7.93653 53.2272 9.37508V16.1069C53.2272 17.4509 54.0738 18.6675 55.3541 19.0925C55.3911 19.1045 55.4281 19.1164 55.465 19.1274C57.482 19.7287 59.5019 18.1796 59.5019 16.083V9.37508C59.5019 7.93653 60.6723 6.77075 62.1165 6.77075C63.5607 6.77075 64.7311 7.93653 64.7311 9.37508V22.3958C64.7311 23.8343 63.5607 25.0001 62.1165 25.0001C60.8572 25.0001 59.8067 24.1141 59.5579 22.9333C59.5069 22.9771 59.4559 23.02 59.4049 23.0618C55.6659 26.132 49.99 24.5601 48.2889 20.0403C48.097 19.5316 47.999 18.992 47.999 18.4484V9.37508H47.998Z" fill="#50BF50"/>
<path d="M33.9577 8.33367V2.60433C33.9577 1.16578 32.7873 0 31.3431 0C29.8999 0 28.7285 1.16578 28.7285 2.60433V22.3957C28.7285 23.8342 29.8989 25 31.3431 25C32.7873 25 33.9577 23.8342 33.9577 22.3957V14.5956C33.9577 12.8942 35.355 11.4706 37.0631 11.4587C37.084 11.4587 37.106 11.4587 37.127 11.4587C38.8351 11.4706 40.2324 12.8942 40.2324 14.5956V22.3957C40.2324 23.8342 41.4027 25 42.847 25C44.2912 25 45.4616 23.8342 45.4616 22.3957V15.3333C45.4616 11.9783 45.4616 9.89567 42.847 7.812C40.6641 6.07279 36.5723 5.72834 33.9577 8.33267V8.33367Z" fill="#50BF50"/>
<path d="M78.8918 24.2932C80.517 23.8392 82.0511 22.8905 82.9547 21.211C83.7662 19.7007 84.0001 17.0476 84.0001 15.3343C84.0001 15.3343 84.0001 9.89666 81.3855 7.813C79.2027 6.07379 75.1109 5.72933 72.4963 8.33367V2.60433C72.4963 1.16578 71.3259 0 69.8827 0C68.4384 0 67.2681 1.16578 67.2681 2.60433V22.3957C67.2681 23.8342 68.4384 25 69.8827 25C71.3269 25 72.4973 23.8342 72.4973 22.3957C72.4973 22.3957 74.9589 25.3922 78.8928 24.2932H78.8918ZM74.5372 19.0437C74.5032 19.0307 74.4692 19.0178 74.4352 19.0039C73.2549 18.528 72.4973 17.3672 72.4973 16.0979V14.5946C72.4973 12.8912 73.8965 11.4676 75.6066 11.4577C75.6256 11.4577 75.6446 11.4577 75.6636 11.4577C77.3737 11.4686 78.7729 12.8912 78.7729 14.5946V16.076C78.7729 18.2582 76.5901 19.8063 74.5382 19.0427L74.5372 19.0437Z" fill="#50BF50"/>
<path d="M23.1855 6.77075C24.7737 6.77075 26.061 7.93653 26.061 9.37508V22.3958C26.061 23.8343 24.7737 25.0001 23.1855 25.0001C21.5974 25.0001 20.3101 23.8343 20.3101 22.3958V9.37508C20.3101 7.93653 21.5974 6.77075 23.1855 6.77075Z" fill="#50BF50"/>
<path d="M23.1856 5.72834C24.846 5.72834 26.192 4.44601 26.192 2.86417C26.192 1.28233 24.846 0 23.1856 0C21.5252 0 20.1792 1.28233 20.1792 2.86417C20.1792 4.44601 21.5252 5.72834 23.1856 5.72834Z" fill="#50BF50"/>
</g>
<defs>
<clipPath id="clip0_737_6420">
<rect width="84" height="25" fill="#50BF50"/>
</clipPath>
</defs>
</svg>
