<svg width="102" height="25" viewBox="0 0 102 25" fill="none" xmlns="http://www.w3.org/2000/svg">
<path d="M8.14114 0.088623H3.19314C1.50399 0.088623 0.134674 1.47525 0.134674 3.18575C0.134674 4.89624 1.50399 6.28287 3.19314 6.28287H8.14114C9.83028 6.28287 11.1996 4.89624 11.1996 3.18575C11.1996 1.47525 9.83028 0.088623 8.14114 0.088623Z" fill="#50BF50"/>
<path d="M14.8922 5.72439C16.2773 5.72439 17.4001 4.58736 17.4001 3.18476C17.4001 1.78217 16.2773 0.645142 14.8922 0.645142C13.5071 0.645142 12.3843 1.78217 12.3843 3.18476C12.3843 4.58736 13.5071 5.72439 14.8922 5.72439Z" fill="#50BF50"/>
<path d="M4.87723 10.8813C5.41302 11.0923 7.77643 11.9565 10.9509 11.2327C12.0756 10.9758 13.0233 10.5836 13.796 10.1665C15.0977 9.46163 16.7041 10.2172 17.0265 11.6747C17.2202 12.5488 16.8879 13.4547 16.1791 13.9903C15.2815 14.6683 13.8875 15.4876 11.99 15.9197C8.81558 16.6435 6.45217 15.7793 5.91638 15.5683L4.87723 10.8813Z" fill="#50BF50"/>
<path d="M6.11693 3.18575C6.11693 1.47525 4.74761 0.088623 3.05846 0.088623C1.36932 0.088623 0 1.47525 0 3.18575V21.7675C0 23.478 1.36932 24.8646 3.05846 24.8646C4.74761 24.8646 6.11693 23.478 6.11693 21.7675V3.18575Z" fill="#50BF50"/>
<path d="M66.4405 9.37496C66.4405 7.93641 67.5917 6.77063 69.0123 6.77063C70.4329 6.77063 71.5841 7.93641 71.5841 9.37496V16.1068C71.5841 17.4508 72.4168 18.6673 73.6762 19.0924C73.7125 19.1044 73.7489 19.1163 73.7853 19.1273C75.7692 19.7286 77.7561 18.1795 77.7561 16.0829V9.37496C77.7561 7.93641 78.9073 6.77063 80.3279 6.77063C81.7485 6.77063 82.8997 7.93641 82.8997 9.37496V22.3956C82.8997 23.8342 81.7485 25 80.3279 25C79.0892 25 78.0559 24.1139 77.8111 22.9332C77.761 22.977 77.7109 23.0198 77.6607 23.0616C73.9829 26.1319 68.3998 24.5599 66.7265 20.0402C66.5378 19.5315 66.4414 18.9919 66.4414 18.4483V9.37496H66.4405Z" fill="#50BF50"/>
<path d="M44.761 22.3957C44.761 23.8342 43.6097 25 42.1891 25C40.7685 25 39.6173 23.8342 39.6173 22.3957L39.6173 15.6638C39.6173 14.3198 38.7846 13.1033 37.5252 12.6782C37.4889 12.6663 37.4525 12.6543 37.4161 12.6434C35.4322 12.0421 33.4453 13.5911 33.4453 15.6877L33.4453 22.3957C33.4453 23.8342 32.2941 25 30.8735 25C29.4529 25 28.3017 23.8342 28.3017 22.3957L28.3017 9.375C28.3017 7.93644 29.4529 6.77067 30.8735 6.77067C32.1122 6.77067 33.1455 7.6567 33.3903 8.83741C33.4404 8.7936 33.4906 8.7508 33.5407 8.70899C37.2185 5.63874 42.8016 7.2107 44.4749 11.7304C44.6636 12.2392 44.76 12.7788 44.76 13.3223L44.76 22.3957L44.761 22.3957Z" fill="#50BF50"/>
<path d="M52.6297 8.33367V2.60433C52.6297 1.16578 51.4784 0 50.0578 0C48.6382 0 47.486 1.16578 47.486 2.60433V22.3957C47.486 23.8342 48.6372 25 50.0578 25C51.4784 25 52.6297 23.8342 52.6297 22.3957V14.5956C52.6297 12.8942 54.0041 11.4706 55.6842 11.4587C55.7048 11.4587 55.7265 11.4587 55.7471 11.4587C57.4273 11.4706 58.8017 12.8942 58.8017 14.5956V22.3957C58.8017 23.8342 59.9529 25 61.3735 25C62.7941 25 63.9453 23.8342 63.9453 22.3957V15.3333C63.9453 11.9783 63.9453 9.89567 61.3735 7.812C59.2264 6.07279 55.2015 5.72834 52.6297 8.33267V8.33367Z" fill="#50BF50"/>
<path d="M96.8284 24.2932C98.427 23.8392 99.9361 22.8905 100.825 21.211C101.623 19.7007 101.853 17.0476 101.853 15.3343C101.853 15.3343 101.853 9.89666 99.2813 7.813C97.1342 6.07379 93.1093 5.72933 90.5375 8.33367V2.60433C90.5375 1.16578 89.3863 0 87.9667 0C86.5461 0 85.3948 1.16578 85.3948 2.60433V22.3957C85.3948 23.8342 86.5461 25 87.9667 25C89.3873 25 90.5385 23.8342 90.5385 22.3957C90.5385 22.3957 92.9599 25.3922 96.8294 24.2932H96.8284ZM92.545 19.0437C92.5116 19.0307 92.4782 19.0178 92.4447 19.0039C91.2837 18.528 90.5385 17.3672 90.5385 16.0979V14.5946C90.5385 12.8912 91.9148 11.4676 93.5969 11.4577C93.6156 11.4577 93.6343 11.4577 93.653 11.4577C95.3351 11.4686 96.7115 12.8912 96.7115 14.5946V16.076C96.7115 18.2582 94.5643 19.8063 92.546 19.0427L92.545 19.0437Z" fill="#50BF50"/>
<path d="M22.8063 6.77063C24.3684 6.77063 25.6347 7.93641 25.6347 9.37496V22.3956C25.6347 23.8342 24.3684 25 22.8063 25C21.2441 25 19.9778 23.8342 19.9778 22.3956V9.37496C19.9778 7.93641 21.2441 6.77063 22.8063 6.77063Z" fill="#50BF50"/>
<path d="M22.8062 5.72834C24.4395 5.72834 25.7634 4.44601 25.7634 2.86417C25.7634 1.28233 24.4395 0 22.8062 0C21.173 0 19.849 1.28233 19.849 2.86417C19.849 4.44601 21.173 5.72834 22.8062 5.72834Z" fill="#50BF50"/>
</svg>
