<svg width="84" height="25" viewBox="0 0 84 25" fill="none" xmlns="http://www.w3.org/2000/svg">
<g clip-path="url(#clip0_1297_1787)">
<path d="M8.27657 0.088623H3.24627C1.52903 0.088623 0.136932 1.47525 0.136932 3.18575C0.136932 4.89624 1.52903 6.28287 3.24627 6.28287H8.27657C9.99381 6.28287 11.3859 4.89624 11.3859 3.18575C11.3859 1.47525 9.99381 0.088623 8.27657 0.088623Z" fill="white"/>
<path d="M15.1399 5.72439C16.548 5.72439 17.6895 4.58736 17.6895 3.18476C17.6895 1.78217 16.548 0.645142 15.1399 0.645142C13.7317 0.645142 12.5902 1.78217 12.5902 3.18476C12.5902 4.58736 13.7317 5.72439 15.1399 5.72439Z" fill="white"/>
<path d="M4.95834 10.8813C5.50305 11.0923 7.90576 11.9565 11.133 11.2327C12.2764 10.9758 13.2399 10.5836 14.0255 10.1665C15.3488 9.46163 16.9819 10.2172 17.3097 11.6747C17.5066 12.5488 17.1688 13.4547 16.4482 13.9903C15.5357 14.6683 14.1184 15.4876 12.1895 15.9197C8.9622 16.6435 6.55949 15.7793 6.01478 15.5683L4.95834 10.8813Z" fill="white"/>
<path d="M6.21867 3.18575C6.21867 1.47525 4.82657 0.088623 3.10933 0.088623C1.3921 0.088623 0 1.47525 0 3.18575V21.7675C0 23.478 1.3921 24.8646 3.10933 24.8646C4.82657 24.8646 6.21867 23.478 6.21867 21.7675V3.18575Z" fill="white"/>
<path d="M47.9983 9.37496C47.9983 7.93641 49.1687 6.77063 50.6129 6.77063C52.0571 6.77063 53.2275 7.93641 53.2275 9.37496V16.1068C53.2275 17.4508 54.074 18.6673 55.3544 19.0924C55.3913 19.1044 55.4283 19.1163 55.4653 19.1273C57.4822 19.7286 59.5021 18.1795 59.5021 16.0829V9.37496C59.5021 7.93641 60.6725 6.77063 62.1167 6.77063C63.561 6.77063 64.7313 7.93641 64.7313 9.37496V22.3956C64.7313 23.8342 63.561 25 62.1167 25C60.8574 25 59.807 24.1139 59.5581 22.9332C59.5071 22.977 59.4562 23.0198 59.4052 23.0616C55.6662 26.1319 49.9902 24.5599 48.2891 20.0402C48.0972 19.5315 47.9993 18.9919 47.9993 18.4483V9.37496H47.9983Z" fill="white"/>
<path d="M33.9578 8.33367V2.60433C33.9578 1.16578 32.7874 0 31.3432 0C29.9 0 28.7286 1.16578 28.7286 2.60433V22.3957C28.7286 23.8342 29.899 25 31.3432 25C32.7874 25 33.9578 23.8342 33.9578 22.3957V14.5956C33.9578 12.8942 35.3551 11.4706 37.0631 11.4587C37.0841 11.4587 37.1061 11.4587 37.1271 11.4587C38.8352 11.4706 40.2324 12.8942 40.2324 14.5956V22.3957C40.2324 23.8342 41.4028 25 42.847 25C44.2913 25 45.4616 23.8342 45.4616 22.3957V15.3333C45.4616 11.9783 45.4616 9.89567 42.847 7.812C40.6642 6.07279 36.5724 5.72834 33.9578 8.33267V8.33367Z" fill="white"/>
<path d="M78.8917 24.2932C80.5169 23.8392 82.051 22.8905 82.9545 21.211C83.7661 19.7007 84 17.0476 84 15.3343C84 15.3343 84 9.89666 81.3854 7.813C79.2026 6.07379 75.1107 5.72933 72.4961 8.33367V2.60433C72.4961 1.16578 71.3258 0 69.8825 0C68.4383 0 67.2679 1.16578 67.2679 2.60433V22.3957C67.2679 23.8342 68.4383 25 69.8825 25C71.3268 25 72.4971 23.8342 72.4971 22.3957C72.4971 22.3957 74.9588 25.3922 78.8927 24.2932H78.8917ZM74.5371 19.0437C74.5031 19.0307 74.4691 19.0178 74.4351 19.0039C73.2547 18.528 72.4971 17.3672 72.4971 16.0979V14.5946C72.4971 12.8912 73.8964 11.4676 75.6065 11.4577C75.6255 11.4577 75.6445 11.4577 75.6634 11.4577C77.3735 11.4686 78.7728 12.8912 78.7728 14.5946V16.076C78.7728 18.2582 76.59 19.8063 74.5381 19.0427L74.5371 19.0437Z" fill="white"/>
<path d="M23.1856 6.77063C24.7737 6.77063 26.061 7.93641 26.061 9.37496V22.3956C26.061 23.8342 24.7737 25 23.1856 25C21.5974 25 20.3101 23.8342 20.3101 22.3956V9.37496C20.3101 7.93641 21.5974 6.77063 23.1856 6.77063Z" fill="white"/>
<path d="M23.1856 5.72834C24.846 5.72834 26.192 4.44601 26.192 2.86417C26.192 1.28233 24.846 0 23.1856 0C21.5252 0 20.1792 1.28233 20.1792 2.86417C20.1792 4.44601 21.5252 5.72834 23.1856 5.72834Z" fill="white"/>
</g>
<defs>
<clipPath id="clip0_1297_1787">
<rect width="84" height="25" fill="white"/>
</clipPath>
</defs>
</svg>
