<svg width="24" height="25" viewBox="0 0 24 25" fill="none" xmlns="http://www.w3.org/2000/svg">
<path fill-rule="evenodd" clip-rule="evenodd" d="M11.3861 1.71065C11.7472 1.42978 12.2528 1.42978 12.6139 1.71065L21.6139 8.71065C21.8575 8.9001 22 9.19141 22 9.5V20.5C22 21.2957 21.6839 22.0587 21.1213 22.6213C20.5587 23.1839 19.7957 23.5 19 23.5H5C4.20435 23.5 3.44129 23.1839 2.87868 22.6213C2.31607 22.0587 2 21.2957 2 20.5V9.5C2 9.19141 2.14247 8.9001 2.38606 8.71065L11.3861 1.71065ZM4 9.98908V20.5C4 20.7652 4.10536 21.0196 4.29289 21.2071C4.48043 21.3946 4.73478 21.5 5 21.5H19C19.2652 21.5 19.5196 21.3946 19.7071 21.2071C19.8946 21.0196 20 20.7652 20 20.5V9.98908L12 3.76686L4 9.98908Z" fill="#484C52"/>
<path fill-rule="evenodd" clip-rule="evenodd" d="M8 12.5C8 11.9477 8.44772 11.5 9 11.5H15C15.5523 11.5 16 11.9477 16 12.5V22.5C16 23.0523 15.5523 23.5 15 23.5C14.4477 23.5 14 23.0523 14 22.5V13.5H10V22.5C10 23.0523 9.55228 23.5 9 23.5C8.44772 23.5 8 23.0523 8 22.5V12.5Z" fill="#484C52"/>
</svg>
