<svg xmlns="http://www.w3.org/2000/svg" width="22" height="20" fill="none">
  <path stroke="#50BF50" stroke-linecap="round" stroke-linejoin="round" stroke-width="2" d="M19.458 2.591a5.255 5.255 0 0 0-1.708-1.177 5.122 5.122 0 0 0-4.028 0 5.255 5.255 0 0 0-1.708 1.177L11 3.638 9.986 2.59a5.183 5.183 0 0 0-3.722-1.59 5.183 5.183 0 0 0-3.722 1.59A5.52 5.52 0 0 0 1 6.431a5.52 5.52 0 0 0 1.542 3.841l1.014 1.047L11 19l7.444-7.681 1.014-1.047a5.445 5.445 0 0 0 1.141-1.762 5.58 5.58 0 0 0 0-4.157 5.445 5.445 0 0 0-1.141-1.762Z"/>
</svg>
