<svg width="25" height="25" viewBox="0 0 25 25" fill="none" xmlns="http://www.w3.org/2000/svg">
<path fill-rule="evenodd" clip-rule="evenodd" d="M9.16654 2.93004C9.38743 3.43622 9.15615 4.02564 8.64997 4.24653C7.30256 4.83451 6.1197 5.74362 5.20481 6.89435C4.28991 8.04509 3.67084 9.40243 3.4017 10.8477C3.13257 12.293 3.22158 13.7822 3.66094 15.1851C4.1003 16.588 4.87664 17.8619 5.92208 18.8955C6.96753 19.9291 8.25025 20.6908 9.6581 21.1141C11.0659 21.5375 12.5561 21.6095 13.9982 21.3238C15.4403 21.0382 16.7904 20.4037 17.9307 19.4757C19.0709 18.5477 19.9664 17.3546 20.539 16.0005C20.7541 15.4919 21.3408 15.2539 21.8495 15.469C22.3582 15.6841 22.5961 16.2708 22.381 16.7795C21.6812 18.4344 20.5867 19.8927 19.1931 21.0269C17.7995 22.1611 16.1493 22.9366 14.3867 23.2857C12.6242 23.6348 10.8029 23.5468 9.08221 23.0294C7.3615 22.5121 5.79374 21.581 4.51597 20.3178C3.2382 19.0545 2.28934 17.4975 1.75235 15.7828C1.21535 14.0681 1.10656 12.248 1.4355 10.4816C1.76444 8.71512 2.52109 7.05615 3.6393 5.6497C4.7575 4.24324 6.20322 3.13211 7.85005 2.41346C8.35623 2.19257 8.94565 2.42385 9.16654 2.93004Z" fill="#484C52"/>
<path fill-rule="evenodd" clip-rule="evenodd" d="M11.5429 1.79289C11.7304 1.60536 11.9848 1.5 12.25 1.5C13.6945 1.5 15.1249 1.78452 16.4595 2.33733C17.7941 2.89013 19.0067 3.70038 20.0282 4.72183C21.0496 5.74327 21.8599 6.9559 22.4127 8.29048C22.9655 9.62506 23.25 11.0555 23.25 12.5C23.25 13.0523 22.8023 13.5 22.25 13.5H12.25C11.6977 13.5 11.25 13.0523 11.25 12.5V2.5C11.25 2.23478 11.3554 1.98043 11.5429 1.79289ZM13.25 3.55573V11.5H21.1943C21.1005 10.6614 20.8891 9.83849 20.5649 9.05585C20.1126 7.96392 19.4497 6.97177 18.614 6.13604C17.7782 5.30031 16.7861 4.63738 15.6942 4.18508C14.9115 3.8609 14.0886 3.64949 13.25 3.55573Z" fill="#484C52"/>
</svg>
