<svg width="25" height="25" viewBox="0 0 25 25" fill="none" xmlns="http://www.w3.org/2000/svg">
<path fill-rule="evenodd" clip-rule="evenodd" d="M4.71447 15.9645C5.65215 15.0268 6.92392 14.5 8.25 14.5H16.25C17.5761 14.5 18.8479 15.0268 19.7855 15.9645C20.7232 16.9021 21.25 18.1739 21.25 19.5V21.5C21.25 22.0523 20.8023 22.5 20.25 22.5C19.6977 22.5 19.25 22.0523 19.25 21.5V19.5C19.25 18.7044 18.9339 17.9413 18.3713 17.3787C17.8087 16.8161 17.0456 16.5 16.25 16.5H8.25C7.45435 16.5 6.69129 16.8161 6.12868 17.3787C5.56607 17.9413 5.25 18.7044 5.25 19.5V21.5C5.25 22.0523 4.80228 22.5 4.25 22.5C3.69772 22.5 3.25 22.0523 3.25 21.5V19.5C3.25 18.1739 3.77678 16.9021 4.71447 15.9645Z" fill="#484C52"/>
<path fill-rule="evenodd" clip-rule="evenodd" d="M12.25 4.5C10.5931 4.5 9.25 5.84315 9.25 7.5C9.25 9.15685 10.5931 10.5 12.25 10.5C13.9069 10.5 15.25 9.15685 15.25 7.5C15.25 5.84315 13.9069 4.5 12.25 4.5ZM7.25 7.5C7.25 4.73858 9.48858 2.5 12.25 2.5C15.0114 2.5 17.25 4.73858 17.25 7.5C17.25 10.2614 15.0114 12.5 12.25 12.5C9.48858 12.5 7.25 10.2614 7.25 7.5Z" fill="#484C52"/>
</svg>
