<svg width="20" height="20" viewBox="0 0 20 20" fill="none" xmlns="http://www.w3.org/2000/svg">
<circle cx="10" cy="10" r="10" fill="#D9D9D9"/>
<path fill-rule="evenodd" clip-rule="evenodd" d="M6.0876 6.08736C6.31541 5.85955 6.68475 5.85955 6.91256 6.08736L10.0001 9.17488L13.0876 6.08736C13.3154 5.85955 13.6848 5.85955 13.9126 6.08736C14.1404 6.31516 14.1404 6.68451 13.9126 6.91232L10.825 9.99984L13.9126 13.0874C14.1404 13.3152 14.1404 13.6845 13.9126 13.9123C13.6848 14.1401 13.3154 14.1401 13.0876 13.9123L10.0001 10.8248L6.91256 13.9123C6.68475 14.1401 6.31541 14.1401 6.0876 13.9123C5.8598 13.6845 5.8598 13.3152 6.0876 13.0874L9.17512 9.99984L6.0876 6.91232C5.8598 6.68451 5.8598 6.31516 6.0876 6.08736Z" fill="white" stroke="white" stroke-linecap="round" stroke-linejoin="round"/>
</svg>
