<svg width="16" height="16" viewBox="0 0 16 16" fill="none" xmlns="http://www.w3.org/2000/svg">
<path id="Subtract" fill-rule="evenodd" clip-rule="evenodd" d="M13.2925 6.09583L14.7916 4.60429C15.1229 4.27461 15.2886 4.10976 15.3988 3.94539C15.8506 3.27157 15.8506 2.39158 15.3988 1.71777C15.2886 1.5534 15.1229 1.38855 14.7916 1.05887L14.7916 1.05886C14.4632 0.732146 14.299 0.568789 14.1353 0.459903C13.4643 0.0136911 12.5912 0.0136911 11.9202 0.459903C11.7565 0.568789 11.5923 0.732146 11.2639 1.05886L11.2639 1.05887L9.72598 2.58911C10.5766 4.05021 11.8068 5.26447 13.2925 6.09583ZM8.26918 4.03859L2.3659 9.91224L2.36589 9.91224L2.36589 9.91225C1.93859 10.3374 1.72495 10.55 1.58438 10.8115C1.44382 11.0731 1.38443 11.3685 1.26564 11.9595L0.766406 14.4431C0.699561 14.7757 0.666138 14.942 0.760655 15.0367C0.855172 15.1314 1.02151 15.0983 1.35419 15.0321L3.86595 14.5322C4.45389 14.4152 4.74786 14.3567 5.0085 14.2178C5.26914 14.0789 5.48162 13.8675 5.90657 13.4447L5.90657 13.4447L11.8285 7.55247C10.395 6.65465 9.18057 5.45269 8.26918 4.03859Z" fill="#50BF50"/>
</svg>
