<svg width="50" height="50" viewBox="0 0 50 50" fill="none" xmlns="http://www.w3.org/2000/svg">
<rect width="50" height="50" rx="8" fill="#EDF0F3"/>
<path d="M13.2249 25.9421C13.6944 22.3431 16.2797 19.3783 19.7813 18.4233L22.6319 17.6458C24.1823 17.223 25.8177 17.223 27.3681 17.6458L30.2187 18.4233C33.7203 19.3783 36.3056 22.3431 36.7751 25.9421L37.6743 32.8359C38.3769 38.2231 34.1827 43 28.7499 43H21.2501C15.8173 43 11.6231 38.2231 12.3257 32.8359L13.2249 25.9421Z" fill="#CDD1D5"/>
<path d="M25.8364 19.7998C25.0762 20.4825 23.9238 20.4825 23.1636 19.7998L16.6924 13.988C15.3279 12.7625 16.1948 10.5 18.0288 10.5L30.9712 10.5C32.8052 10.5 33.6721 12.7625 32.3076 13.988L25.8364 19.7998Z" fill="#CDD1D5"/>
<path d="M24.999 23.8574H25.792V36.2441H24.999V23.8574ZM27.2959 27.8154C27.2686 27.5374 27.1751 27.2959 27.0156 27.0908C26.8607 26.8857 26.6465 26.7331 26.373 26.6328C26.1042 26.528 25.7897 26.4756 25.4297 26.4756C25.0651 26.4756 24.7461 26.5303 24.4727 26.6396C24.2038 26.749 23.9941 26.9017 23.8438 27.0977C23.6979 27.2936 23.625 27.5192 23.625 27.7744C23.625 28.1481 23.7799 28.4375 24.0898 28.6426C24.4043 28.8477 24.8145 29.014 25.3203 29.1416L26.2432 29.374C27.1227 29.5791 27.8268 29.9049 28.3555 30.3516C28.8841 30.7982 29.1507 31.4202 29.1553 32.2178C29.1553 32.7965 29.0049 33.307 28.7041 33.749C28.4079 34.1911 27.9772 34.5352 27.4121 34.7812C26.8516 35.0273 26.1794 35.1504 25.3955 35.1504C24.6299 35.1504 23.9622 35.0319 23.3926 34.7949C22.8275 34.5534 22.3877 34.2025 22.0732 33.7422C21.7588 33.2819 21.5879 32.7282 21.5605 32.0811H23.3105C23.3379 32.4183 23.445 32.7031 23.6318 32.9355C23.8187 33.1634 24.0625 33.3366 24.3633 33.4551C24.6641 33.569 25.0036 33.626 25.3818 33.626C25.7738 33.626 26.1201 33.5667 26.4209 33.4482C26.7217 33.3298 26.9541 33.1634 27.1182 32.9492C27.2868 32.7305 27.3711 32.4821 27.3711 32.2041C27.3711 31.958 27.3005 31.7507 27.1592 31.582C27.0179 31.4089 26.8174 31.2653 26.5576 31.1514C26.3024 31.0374 25.9788 30.9303 25.5869 30.8301L24.459 30.543C23.6113 30.3197 22.9596 29.9915 22.5039 29.5586C22.0527 29.1257 21.8271 28.5651 21.8271 27.877C21.8271 27.3027 21.9844 26.7969 22.2988 26.3594C22.6133 25.9173 23.0462 25.5755 23.5977 25.334C24.1491 25.0879 24.7689 24.9648 25.457 24.9648C26.1452 24.9648 26.7559 25.0856 27.2891 25.3271C27.8268 25.5687 28.2461 25.9059 28.5469 26.3389C28.8477 26.7673 29.0049 27.2594 29.0186 27.8154H27.2959Z" fill="#EDF0F3"/>
</svg>
