<svg width="50" height="50" viewBox="0 0 50 50" fill="none" xmlns="http://www.w3.org/2000/svg">
<rect width="50" height="50" rx="8" fill="#C0F5B8"/>
<path d="M23.5 43C23.5 43.8284 24.1716 44.5 25 44.5C25.8284 44.5 26.5 43.8284 26.5 43L23.5 43ZM23.5 23L23.5 43L26.5 43L26.5 23L23.5 23Z" fill="#50BF50"/>
<circle cx="25" cy="16" r="11" fill="#50BF50"/>
<path d="M24.999 9.85742H25.792V22.2441H24.999V9.85742ZM27.2959 13.8154C27.2686 13.5374 27.1751 13.2959 27.0156 13.0908C26.8607 12.8857 26.6465 12.7331 26.373 12.6328C26.1042 12.528 25.7897 12.4756 25.4297 12.4756C25.0651 12.4756 24.7461 12.5303 24.4727 12.6396C24.2038 12.749 23.9941 12.9017 23.8438 13.0977C23.6979 13.2936 23.625 13.5192 23.625 13.7744C23.625 14.1481 23.7799 14.4375 24.0898 14.6426C24.4043 14.8477 24.8145 15.014 25.3203 15.1416L26.2432 15.374C27.1227 15.5791 27.8268 15.9049 28.3555 16.3516C28.8841 16.7982 29.1507 17.4202 29.1553 18.2178C29.1553 18.7965 29.0049 19.307 28.7041 19.749C28.4079 20.1911 27.9772 20.5352 27.4121 20.7812C26.8516 21.0273 26.1794 21.1504 25.3955 21.1504C24.6299 21.1504 23.9622 21.0319 23.3926 20.7949C22.8275 20.5534 22.3877 20.2025 22.0732 19.7422C21.7588 19.2819 21.5879 18.7282 21.5605 18.0811H23.3105C23.3379 18.4183 23.445 18.7031 23.6318 18.9355C23.8187 19.1634 24.0625 19.3366 24.3633 19.4551C24.6641 19.569 25.0036 19.626 25.3818 19.626C25.7738 19.626 26.1201 19.5667 26.4209 19.4482C26.7217 19.3298 26.9541 19.1634 27.1182 18.9492C27.2868 18.7305 27.3711 18.4821 27.3711 18.2041C27.3711 17.958 27.3005 17.7507 27.1592 17.582C27.0179 17.4089 26.8174 17.2653 26.5576 17.1514C26.3024 17.0374 25.9788 16.9303 25.5869 16.8301L24.459 16.543C23.6113 16.3197 22.9596 15.9915 22.5039 15.5586C22.0527 15.1257 21.8271 14.5651 21.8271 13.877C21.8271 13.3027 21.9844 12.7969 22.2988 12.3594C22.6133 11.9173 23.0462 11.5755 23.5977 11.334C24.1491 11.0879 24.7689 10.9648 25.457 10.9648C26.1452 10.9648 26.7559 11.0856 27.2891 11.3271C27.8268 11.5687 28.2461 11.9059 28.5469 12.3389C28.8477 12.7673 29.0049 13.2594 29.0186 13.8154H27.2959Z" fill="#C0F5B8"/>
<path d="M26.1015 41.4569C24.677 41.0295 24.2008 39.2521 25.2207 38.1697L28.4226 34.7717C28.9418 34.2207 29.7277 34.0101 30.4529 34.2277L34.9248 35.5694C36.3493 35.9969 36.8256 37.7743 35.8056 38.8567L32.6037 42.2546C32.0845 42.8056 31.2986 43.0162 30.5734 42.7986L26.1015 41.4569Z" fill="#50BF50"/>
<path d="M13.2207 31.8567C12.2008 30.7742 12.677 28.9968 14.1015 28.5694L18.5734 27.2277C19.2986 27.0101 20.0845 27.2207 20.6037 27.7717L23.8056 31.1696C24.8256 32.252 24.3493 34.0294 22.9248 34.4569L18.4529 35.7986C17.7277 36.0162 16.9418 35.8056 16.4226 35.2546L13.2207 31.8567Z" fill="#50BF50"/>
</svg>
