<svg width="50" height="50" viewBox="0 0 50 50" fill="none" xmlns="http://www.w3.org/2000/svg">
<g id="ic / category / on">
<rect id="Rectangle 12" width="50" height="50" rx="8" fill="#C0F5B8"/>
<g id="ic/Book_open_alt">
<path id="Vector 383" d="M25 15.3334V37" stroke="#50BF50" stroke-width="2" stroke-linecap="round"/>
<path id="Vector 388" d="M40 15.3334L40 37" stroke="#50BF50" stroke-width="2" stroke-linecap="round"/>
<path id="Vector 389" d="M10 15.3334L10 37" stroke="#50BF50" stroke-width="2" stroke-linecap="round"/>
<path id="Vector 384" d="M40 37C40 37 38.3333 33.6666 32.5 33.6666C26.6667 33.6666 25 37 25 37" stroke="#50BF50" stroke-width="2" stroke-linecap="round"/>
<path id="Vector 391" d="M25 37C25 37 23.3333 33.6666 17.5 33.6666C11.6667 33.6666 10 37 10 37" stroke="#50BF50" stroke-width="2" stroke-linecap="round"/>
<path id="Vector 390" d="M40 15.3333C40 15.3333 38.3333 12 32.5 12C26.6667 12 25 15.3333 25 15.3333" stroke="#50BF50" stroke-width="2" stroke-linecap="round"/>
<path id="Vector 392" d="M25 15.3333C25 15.3333 23.3333 12 17.5 12C11.6667 12 10 15.3333 10 15.3333" stroke="#50BF50" stroke-width="2" stroke-linecap="round"/>
<path id="Vector 444" d="M14 19L20 19" stroke="#50BF50" stroke-width="2" stroke-linecap="round"/>
<path id="Vector 445" d="M14 23L18 23" stroke="#50BF50" stroke-width="2" stroke-linecap="round"/>
<path id="Vector 446" d="M14 27L16 27" stroke="#50BF50" stroke-width="2" stroke-linecap="round"/>
</g>
</g>
</svg>
