<svg width="50" height="50" viewBox="0 0 50 50" fill="none" xmlns="http://www.w3.org/2000/svg">
<g id="ic / category / on">
<rect id="Rectangle 12" width="50" height="50" rx="8" fill="#C0F5B8"/>
<g id="Icon">
<path d="M15 26.2857C15 25.5756 15.5596 25 16.25 25H18.75C19.4404 25 20 25.5756 20 26.2857V32.7143C20 33.4244 19.4404 34 18.75 34H16.25C15.5596 34 15 33.4244 15 32.7143V26.2857Z" fill="#50BF50"/>
<path d="M22.5 21.1429C22.5 20.4328 23.0596 19.8571 23.75 19.8571H26.25C26.9404 19.8571 27.5 20.4328 27.5 21.1429V32.7143C27.5 33.4244 26.9404 34 26.25 34H23.75C23.0596 34 22.5 33.4244 22.5 32.7143V21.1429Z" fill="#50BF50"/>
<path d="M30 17.2857C30 16.5756 30.5596 16 31.25 16H33.75C34.4404 16 35 16.5756 35 17.2857V32.7143C35 33.4244 34.4404 34 33.75 34H31.25C30.5596 34 30 33.4244 30 32.7143V17.2857Z" fill="#50BF50"/>
</g>
</g>
</svg>
