<svg width="50" height="50" viewBox="0 0 50 50" fill="none" xmlns="http://www.w3.org/2000/svg">
<rect width="50" height="50" rx="8" fill="#C0F5B8"/>
<rect x="15.5" y="20.5" width="25" height="16" rx="1.5" fill="#50BF50" stroke="#C0F5B8"/>
<rect x="12.5" y="17.5" width="25" height="16" rx="1.5" fill="#50BF50" stroke="#C0F5B8"/>
<rect x="9.5" y="14.5" width="25" height="16" rx="1.5" fill="#50BF50" stroke="#C0F5B8"/>
<path d="M22.1421 17.2451H22.7651V26.9775H22.1421V17.2451ZM23.9468 20.355C23.9253 20.1366 23.8519 19.9468 23.7266 19.7856C23.6048 19.6245 23.4365 19.5046 23.2217 19.4258C23.0104 19.3434 22.7633 19.3022 22.4805 19.3022C22.194 19.3022 21.9434 19.3452 21.7285 19.4312C21.5173 19.5171 21.3525 19.637 21.2344 19.791C21.1198 19.945 21.0625 20.1222 21.0625 20.3228C21.0625 20.6164 21.1842 20.8438 21.4277 21.0049C21.6748 21.166 21.9971 21.2967 22.3945 21.397L23.1196 21.5796C23.8107 21.7407 24.3639 21.9967 24.7793 22.3477C25.1947 22.6986 25.4041 23.1873 25.4077 23.814C25.4077 24.2687 25.2896 24.6698 25.0532 25.0171C24.8205 25.3644 24.4821 25.6348 24.0381 25.8281C23.5977 26.0215 23.0695 26.1182 22.4536 26.1182C21.8521 26.1182 21.3275 26.0251 20.8799 25.8389C20.4359 25.6491 20.0903 25.3734 19.8433 25.0117C19.5962 24.6501 19.4619 24.215 19.4404 23.7065H20.8154C20.8369 23.9715 20.9211 24.1953 21.0679 24.3779C21.2147 24.557 21.4062 24.693 21.6426 24.7861C21.8789 24.8757 22.1457 24.9204 22.4429 24.9204C22.7508 24.9204 23.0229 24.8739 23.2593 24.7808C23.4956 24.6877 23.6782 24.557 23.8071 24.3887C23.9396 24.2168 24.0059 24.0216 24.0059 23.8032C24.0059 23.6099 23.9504 23.4469 23.8394 23.3145C23.7284 23.1784 23.5708 23.0656 23.3667 22.9761C23.1662 22.8866 22.9119 22.8024 22.604 22.7236L21.7178 22.498C21.0518 22.3226 20.5397 22.0648 20.1816 21.7246C19.8271 21.3844 19.6499 20.944 19.6499 20.4033C19.6499 19.9521 19.7734 19.5547 20.0205 19.2109C20.2676 18.8636 20.6077 18.5951 21.041 18.4053C21.4743 18.2119 21.9613 18.1152 22.502 18.1152C23.0426 18.1152 23.5225 18.2101 23.9414 18.3999C24.3639 18.5897 24.6934 18.8547 24.9297 19.1948C25.166 19.5314 25.2896 19.9181 25.3003 20.355H23.9468Z" fill="#C0F5B8"/>
</svg>
