<svg width="20" height="25" viewBox="0 0 20 25" fill="none" xmlns="http://www.w3.org/2000/svg">
<g id="Group 184750">
<rect id="Rectangle 1916" y="22" width="20" height="3" rx="1" fill="#E83B3B" fill-opacity="0.7"/>
<path id="Subtract" fill-rule="evenodd" clip-rule="evenodd" d="M10 0C4.47715 0 0 4.47715 0 10V19C0 19.5523 0.447715 20 1 20H19C19.5523 20 20 19.5523 20 19V10C20 4.47715 15.5228 0 10 0ZM8.92285 11.8467H10.3096L10.4658 6.92969H8.77148L8.92285 11.8467ZM9.17188 13.9756C9.30859 14.057 9.45671 14.0977 9.61621 14.0977C9.77246 14.0977 9.91732 14.057 10.0508 13.9756C10.1875 13.8942 10.2965 13.7868 10.3779 13.6533C10.4593 13.5166 10.5 13.3685 10.5 13.209C10.5 13.056 10.4593 12.9128 10.3779 12.7793C10.2965 12.6426 10.1875 12.5352 10.0508 12.457C9.91732 12.3789 9.77246 12.3398 9.61621 12.3398C9.45671 12.3398 9.30859 12.3789 9.17188 12.457C9.03516 12.5352 8.92773 12.6426 8.84961 12.7793C8.77474 12.9128 8.7373 13.056 8.7373 13.209C8.7373 13.3685 8.77474 13.5166 8.84961 13.6533C8.92773 13.7868 9.03516 13.8942 9.17188 13.9756Z" fill="#E83B3B" fill-opacity="0.7"/>
</g>
</svg>
