<svg width="30" height="30" viewBox="0 0 30 30" fill="none" xmlns="http://www.w3.org/2000/svg">
<g id="Edit_fill">
<path id="Subtract" fill-rule="evenodd" clip-rule="evenodd" d="M16.294 8.70617L18.75 6.25019C19.7671 5.23313 20.2756 4.7246 20.8872 4.61179C21.1271 4.56755 21.373 4.56755 21.6128 4.61179C22.2244 4.7246 22.733 5.23313 23.75 6.25017L23.75 6.25019C24.7671 7.26724 25.2756 7.77577 25.3884 8.38742C25.4326 8.62724 25.4326 8.87313 25.3884 9.11296C25.2756 9.7246 24.7671 10.2331 23.75 11.2502L21.3218 13.6784C19.2384 12.4799 17.5079 10.7626 16.294 8.70617ZM14.8397 10.1605L5.8564 19.1438C5.43134 19.5689 5.21881 19.7814 5.07907 20.0425C4.93934 20.3036 4.88039 20.5983 4.7625 21.1878L3.8971 25.5148C3.83058 25.8474 3.79732 26.0137 3.89193 26.1083C3.98654 26.2029 4.15284 26.1696 4.48545 26.1031L8.81243 25.2377C9.40189 25.1198 9.69661 25.0609 9.95771 24.9211C10.2188 24.7814 10.4313 24.5689 10.8564 24.1438L19.8637 15.1365C17.8311 13.8737 16.1151 12.1696 14.8397 10.1605Z" fill="#50BF50"/>
</g>
</svg>
