<svg width="14" height="21" viewBox="0 0 14 21" fill="none" xmlns="http://www.w3.org/2000/svg">
<g id="Group 34150">
<g id="Group 8593">
<path id="Vector 9" d="M8.71409 12.999L5.28552 16.4276L8.71409 19.8562" stroke="#7B8287" stroke-width="1.5" stroke-linejoin="round"/>
<path id="Ellipse 57" d="M12.1962 7.42822C12.7228 8.34034 13 9.375 13 10.4282C13 11.4814 12.7228 12.5161 12.1962 13.4282C11.6695 14.3403 10.9121 15.0978 10 15.6244C9.08788 16.151 8.05322 16.4282 7 16.4282" stroke="#7B8287" stroke-width="1.5" stroke-linecap="round" stroke-linejoin="round"/>
</g>
<g id="Group 8594">
<path id="Vector 9_2" d="M5.28591 7.85693L8.71448 4.42836L5.28591 0.99979" stroke="#7B8287" stroke-width="1.5" stroke-linejoin="round"/>
<path id="Ellipse 57_2" d="M1.80385 13.4282C1.27724 12.5161 1 11.4814 1 10.4282C1 9.375 1.27724 8.34034 1.80385 7.42822C2.33046 6.51611 3.08788 5.75868 4 5.23207C4.91212 4.70546 5.94678 4.42822 7 4.42822" stroke="#7B8287" stroke-width="1.5" stroke-linecap="round" stroke-linejoin="round"/>
</g>
</g>
</svg>
