<svg width="14" height="14" viewBox="0 0 14 14" fill="none" xmlns="http://www.w3.org/2000/svg">
<g id="Icon">
<path d="M0 7.4375C0 6.71263 0.604201 6.125 1.34952 6.125C2.09484 6.125 2.69904 6.71263 2.69904 7.4375V12.6875C2.69904 13.4124 2.09484 14 1.34952 14C0.604201 14 0 13.4124 0 12.6875V7.4375Z" fill="#50BF50"/>
<path d="M3.59872 7.29167V12.0434C3.59872 12.7063 3.98379 13.3123 4.59339 13.6087L4.63823 13.6305C5.13793 13.8735 5.68895 14 6.24763 14H11.1204C11.9781 14 12.7166 13.4112 12.8848 12.5932L13.9644 7.3432C14.1871 6.26032 13.3355 5.25 12.2 5.25H8.99681V1.75C8.99681 0.783502 8.19121 0 7.19745 0C6.70057 0 6.29777 0.391751 6.29777 0.875V1.45833C6.29777 2.21563 6.04522 2.9525 5.57802 3.55833L4.31847 5.19167C3.85127 5.7975 3.59872 6.53437 3.59872 7.29167Z" fill="#50BF50"/>
</g>
</svg>
