<svg width="14" height="14" viewBox="0 0 14 14" fill="none" xmlns="http://www.w3.org/2000/svg">
<path id="Icon (Stroke)" fill-rule="evenodd" clip-rule="evenodd" d="M5.66578 1.33317C5.66578 0.59688 6.26967 0 7.01461 0H7.08222C8.25564 0 9.20689 0.940202 9.20689 2.1V4.9H11.8726C13.452 4.9 14.4793 6.54286 13.773 7.93915L11.2942 12.8391C10.9343 13.5506 10.1986 14 9.39381 14H6.54837C6.37466 14 6.2016 13.9789 6.03307 13.9373L3.45393 13.3H2.12467C0.951246 13.3 0 12.3598 0 11.2V7C0 5.8402 0.951246 4.9 2.12467 4.9H3.63423L5.35437 2.34975C5.55742 2.0487 5.66578 1.69498 5.66578 1.33317ZM2.83289 6.3H2.12467C1.73353 6.3 1.41644 6.6134 1.41644 7V11.2C1.41644 11.5866 1.73353 11.9 2.12467 11.9H2.83289V6.3ZM4.24933 12.0535V6.51194L6.53292 3.12633C6.87858 2.61386 7.06867 2.01486 7.08152 1.4C7.47267 1.4 7.79045 1.7134 7.79045 2.1V4.9H7.08222C6.69108 4.9 6.374 5.2134 6.374 5.6C6.374 5.9866 6.69108 6.3 7.08222 6.3H11.8726C12.3991 6.3 12.7415 6.84762 12.506 7.31305L10.0273 12.213C9.9073 12.4502 9.66207 12.6 9.39381 12.6H6.54837C6.49047 12.6 6.43278 12.593 6.37661 12.5791L4.24933 12.0535Z" fill="#50BF50"/>
</svg>
