<svg width="30" height="30" viewBox="0 0 30 30" fill="none" xmlns="http://www.w3.org/2000/svg">
<g id="Trash">
<g id="Group 21">
<path id="Subtract" fill-rule="evenodd" clip-rule="evenodd" d="M26.25 7.5H3.75V11.25C4.21466 11.25 4.44698 11.25 4.64018 11.2884C5.43356 11.4462 6.05376 12.0664 6.21157 12.8598C6.25 13.053 6.25 13.2853 6.25 13.75V20.25C6.25 23.0784 6.25 24.4926 7.12868 25.3713C8.00736 26.25 9.42157 26.25 12.25 26.25H17.75C20.5784 26.25 21.9926 26.25 22.8713 25.3713C23.75 24.4926 23.75 23.0784 23.75 20.25V13.75C23.75 13.2853 23.75 13.053 23.7884 12.8598C23.9462 12.0664 24.5664 11.4462 25.3598 11.2884C25.553 11.25 25.7853 11.25 26.25 11.25V7.5ZM12.875 13.75C12.875 13.1977 12.4273 12.75 11.875 12.75C11.3227 12.75 10.875 13.1977 10.875 13.75V20C10.875 20.5523 11.3227 21 11.875 21C12.4273 21 12.875 20.5523 12.875 20V13.75ZM19.125 13.75C19.125 13.1977 18.6773 12.75 18.125 12.75C17.5727 12.75 17.125 13.1977 17.125 13.75V20C17.125 20.5523 17.5727 21 18.125 21C18.6773 21 19.125 20.5523 19.125 20V13.75Z" fill="#A6ABAF"/>
</g>
<path id="Ellipse 45" d="M12.5852 4.21324C12.7276 4.08034 13.0415 3.96291 13.4781 3.87915C13.9147 3.7954 14.4497 3.75 15 3.75C15.5503 3.75 16.0853 3.7954 16.5219 3.87915C16.9585 3.96291 17.2724 4.08034 17.4148 4.21324" stroke="#A6ABAF" stroke-width="2" stroke-linecap="round"/>
</g>
</svg>
