<svg xmlns="http://www.w3.org/2000/svg" width="19" height="24" viewBox="0 0 19 24" fill="none">
  <path fill-rule="evenodd" clip-rule="evenodd" d="M4.95271 2.4C5.44177 1.00177 6.76137 0 8.3125 0H10.6875C12.2386 0 13.5582 1.00177 14.0473 2.4H15.4375C17.405 2.4 19 4.01178 19 6V20.4C19 22.3882 17.405 24 15.4375 24H3.5625C1.59499 24 0 22.3882 0 20.4V6C0 4.01178 1.59499 2.4 3.5625 2.4H4.95271ZM4.95271 4.8H3.5625C2.90666 4.8 2.375 5.33726 2.375 6V20.4C2.375 21.0627 2.90666 21.6 3.5625 21.6H15.4375C16.0933 21.6 16.625 21.0627 16.625 20.4V6C16.625 5.33726 16.0933 4.8 15.4375 4.8H14.0473C13.5582 6.19823 12.2386 7.2 10.6875 7.2H8.3125C6.76137 7.2 5.44177 6.19823 4.95271 4.8ZM8.3125 2.4C7.65666 2.4 7.125 2.93726 7.125 3.6C7.125 4.26274 7.65666 4.8 8.3125 4.8H10.6875C11.3433 4.8 11.875 4.26274 11.875 3.6C11.875 2.93726 11.3433 2.4 10.6875 2.4H8.3125ZM4.75 12C4.75 11.3373 5.28166 10.8 5.9375 10.8H5.94938C6.60521 10.8 7.13688 11.3373 7.13688 12C7.13688 12.6627 6.60521 13.2 5.94938 13.2H5.9375C5.28166 13.2 4.75 12.6627 4.75 12ZM8.3125 12C8.3125 11.3373 8.84416 10.8 9.5 10.8H13.0625C13.7183 10.8 14.25 11.3373 14.25 12C14.25 12.6627 13.7183 13.2 13.0625 13.2H9.5C8.84416 13.2 8.3125 12.6627 8.3125 12ZM4.75 16.8C4.75 16.1373 5.28166 15.6 5.9375 15.6H5.94938C6.60521 15.6 7.13688 16.1373 7.13688 16.8C7.13688 17.4627 6.60521 18 5.94938 18H5.9375C5.28166 18 4.75 17.4627 4.75 16.8ZM8.3125 16.8C8.3125 16.1373 8.84416 15.6 9.5 15.6H13.0625C13.7183 15.6 14.25 16.1373 14.25 16.8C14.25 17.4627 13.7183 18 13.0625 18H9.5C8.84416 18 8.3125 17.4627 8.3125 16.8Z" fill="currentColor"/>
</svg>