<svg xmlns="http://www.w3.org/2000/svg" width="21" height="25" viewBox="0 0 22 25" fill="none">
  <path d="M1.5 12.2174C1.5 10.4407 1.5 9.55239 1.87248 8.77155C2.24497 7.99071 2.9445 7.4126 4.34356 6.25637L5.7007 5.13479C8.22949 3.04493 9.49388 2 11 2C12.5061 2 13.7705 3.04493 16.2993 5.13479L17.6564 6.25637C19.0555 7.4126 19.755 7.99071 20.1275 8.77155C20.5 9.55239 20.5 10.4407 20.5 12.2174V17.766C20.5 20.2333 20.5 21.467 19.705 22.2335C18.91 23 17.6305 23 15.0714 23H6.92857C4.36952 23 3.08999 23 2.295 22.2335C1.5 21.467 1.5 20.2333 1.5 17.766V12.2174Z" stroke="currentColor" stroke-width="2"/>
  <path d="M15.5 23V16C15.5 15.4477 15.0523 15 14.5 15H7.5C6.94772 15 6.5 15.4477 6.5 16V23" stroke="currentColor" stroke-width="2" stroke-linecap="round" stroke-linejoin="round"/>
</svg>