<svg width="20" height="21" viewBox="0 0 20 21" fill="none" xmlns="http://www.w3.org/2000/svg">
<path fill-rule="evenodd" clip-rule="evenodd" d="M9 2.5C5.13401 2.5 2 5.63401 2 9.5C2 13.366 5.13401 16.5 9 16.5C12.866 16.5 16 13.366 16 9.5C16 5.63401 12.866 2.5 9 2.5ZM0 9.5C0 4.52944 4.02944 0.5 9 0.5C13.9706 0.5 18 4.52944 18 9.5C18 14.4706 13.9706 18.5 9 18.5C4.02944 18.5 0 14.4706 0 9.5Z" fill="currentColor"/>
<path fill-rule="evenodd" clip-rule="evenodd" d="M13.9429 14.4429C14.3334 14.0524 14.9666 14.0524 15.3571 14.4429L19.7071 18.7929C20.0977 19.1834 20.0977 19.8166 19.7071 20.2071C19.3166 20.5976 18.6834 20.5976 18.2929 20.2071L13.9429 15.8571C13.5524 15.4666 13.5524 14.8334 13.9429 14.4429Z" fill="currentColor"/>
</svg>
