<svg width="78" height="19" viewBox="0 0 78 19" fill="none" xmlns="http://www.w3.org/2000/svg">
<path d="M0.589844 18V1.03125H11.4648V3.58594H3.63672V8.22656H10.7148V10.7812H3.63672V18H0.589844ZM13.9023 18V5.27344H16.9023V18H13.9023ZM15.4258 3.46875C14.4883 3.46875 13.6914 2.74219 13.6914 1.82812C13.6914 0.9375 14.4883 0.210938 15.4258 0.210938C16.3867 0.210938 17.1602 0.9375 17.1602 1.82812C17.1602 2.74219 16.3867 3.46875 15.4258 3.46875ZM22.7617 10.5469V18H19.7617V5.27344H22.6211V7.42969H22.7852C23.3711 6 24.6602 5.10938 26.5586 5.10938C29.207 5.10938 30.9414 6.84375 30.918 9.89062V18H27.9414V10.3594C27.9414 8.64844 27.0273 7.64062 25.457 7.64062C23.8633 7.64062 22.7617 8.69531 22.7617 10.5469ZM33.918 18V1.03125H36.9648V8.22656H44.8633V1.03125H47.9336V18H44.8633V10.7812H36.9648V18H33.918ZM59.0664 12.6562V5.27344H62.043V18H59.1602V15.75H59.0195C58.4336 17.1562 57.0977 18.1641 55.1992 18.1641C52.6914 18.1641 50.957 16.4297 50.9336 13.3828V5.27344H53.9336V12.9141C53.9336 14.5312 54.8945 15.5625 56.3477 15.5625C57.6602 15.5625 59.0664 14.6016 59.0664 12.6562ZM65.043 18V1.03125H68.043V7.35938H68.1602C68.6289 6.44531 69.543 5.10938 71.793 5.10938C74.7461 5.10938 77.0664 7.40625 77.0664 11.6484C77.0664 15.8438 74.793 18.2344 71.8164 18.2344C69.6133 18.2344 68.6289 16.9219 68.1602 15.9844H67.9727V18H65.043ZM67.9727 11.625C67.9727 14.1094 69.0508 15.7734 70.9727 15.7734C72.9648 15.7734 74.0195 14.0391 74.0195 11.625C74.0195 9.25781 72.9883 7.54688 70.9727 7.54688C69.0508 7.54688 67.9727 9.16406 67.9727 11.625Z" fill="url(#paint0_linear_95_10602)"/>
<defs>
<linearGradient id="paint0_linear_95_10602" x1="38.5" y1="-5" x2="38.5" y2="24" gradientUnits="userSpaceOnUse">
<stop stop-color="#32B768"/>
<stop offset="1" stop-color="#B0FF60"/>
</linearGradient>
</defs>
</svg>
