<svg width="81" height="65" viewBox="0 0 81 65" fill="none" xmlns="http://www.w3.org/2000/svg">
<rect width="81" height="65" fill="#F5F5F5"/>
<g clip-path="url(#clip0_95_10454)">
<rect width="360" height="959" transform="translate(-25 -317)" fill="#FAFAFA"/>
<rect x="-25" y="-38" width="360" height="162" fill="white"/>
<g filter="url(#filter0_d_95_10454)">
<rect x="-9" y="-24" width="328" height="113" rx="25" fill="white"/>
</g>
<mask id="mask0_95_10454" style="mask-type:alpha" maskUnits="userSpaceOnUse" x="-9" y="-24" width="328" height="113">
<rect x="-9" y="-24" width="328" height="113" rx="25" fill="white"/>
</mask>
<g mask="url(#mask0_95_10454)">
<circle cx="1" cy="36" r="91" fill="#D0F3D5"/>
<path d="M0.218757 28.056C1.257 29.3971 2.57002 30.5259 4.02667 31.3924C5.50363 32.2714 7.13358 32.846 8.80569 33.2238C10.6089 33.6297 12.5605 33.7749 14.2592 32.9147C15.8001 32.1356 16.9196 30.565 17.0413 28.8335C17.1584 27.1817 16.2279 25.4097 14.6932 24.7243C12.9196 23.9312 10.8588 24.4651 9.49265 25.7875C8.23427 27.0053 7.58479 28.7399 7.43178 30.4572C7.28502 32.1169 7.66285 33.8202 8.44036 35.2893C10.011 38.2557 13.4286 40.0278 16.7603 39.6874C17.1928 39.6437 17.6221 39.575 18.0452 39.4688C18.4418 39.3689 18.7181 38.9037 18.5901 38.5087C18.4574 38.0996 18.0546 37.8561 17.6299 37.9638C17.4582 38.0075 17.2849 38.045 17.11 38.0762C17.071 38.0824 17.032 38.0903 16.9929 38.0965C16.9836 38.0981 16.79 38.1308 16.9211 38.109C17.0507 38.0871 16.8602 38.1168 16.8493 38.1168C16.79 38.123 16.7322 38.1293 16.6729 38.1355C16.32 38.1668 15.9641 38.1746 15.6097 38.1574C15.4317 38.148 15.2553 38.1324 15.0788 38.1137C14.9336 38.0981 15.0866 38.1168 15.1101 38.1184C15.0617 38.1137 15.0117 38.1043 14.9633 38.0965C14.8665 38.0809 14.7682 38.0637 14.6714 38.045C14.3123 37.9747 13.9594 37.881 13.6128 37.7624C13.4583 37.7093 13.249 37.6671 13.1148 37.5735C13.1319 37.586 13.2725 37.6422 13.1382 37.5828C13.1023 37.5672 13.0664 37.5501 13.0305 37.5344C12.9321 37.4892 12.8337 37.4423 12.7369 37.3924C12.4122 37.2269 12.0984 37.038 11.8002 36.8287C11.7362 36.7835 11.6722 36.7366 11.6082 36.6898C11.452 36.5758 11.6956 36.7632 11.6019 36.6851C11.5644 36.6539 11.5254 36.6242 11.4864 36.5914C11.349 36.479 11.2163 36.3604 11.0883 36.237C10.9602 36.1137 10.8353 35.9857 10.7167 35.853C10.6573 35.7858 10.598 35.7187 10.5403 35.65C10.509 35.6125 10.4778 35.5735 10.4466 35.5345C10.342 35.4096 10.5278 35.6469 10.4232 35.5048C10.2124 35.216 10.0157 34.9178 9.84237 34.604C9.7565 34.4478 9.67532 34.287 9.60038 34.1262C9.5832 34.0903 9.56759 34.0544 9.55041 34.0169C9.54729 34.0107 9.47235 33.8296 9.51919 33.9467C9.56603 34.0622 9.49421 33.8811 9.49109 33.8748C9.47235 33.828 9.45518 33.7827 9.438 33.7359C9.30998 33.3909 9.20538 33.038 9.12575 32.6789C9.08672 32.5041 9.05393 32.3276 9.02583 32.1512C9.01959 32.1122 9.01178 32.0716 9.00866 32.0326C9.02583 32.2168 9.01802 32.1028 9.01334 32.0622C9.00241 31.9529 8.98992 31.8452 8.98212 31.7359C8.95401 31.369 8.95245 31.0006 8.97587 30.6352C8.98212 30.5462 8.98992 30.4572 8.99773 30.3683C9.00241 30.323 9.0149 30.031 9.01022 30.2512C9.01334 30.0701 9.07267 29.8718 9.11326 29.6953C9.19445 29.3316 9.30374 28.974 9.44113 28.6274C9.45674 28.59 9.47079 28.5509 9.48796 28.5135C9.41615 28.6665 9.46767 28.5634 9.48172 28.5306C9.52543 28.4385 9.56759 28.3449 9.61287 28.2543C9.69561 28.0904 9.78617 27.9296 9.88296 27.775C9.9782 27.6204 10.0797 27.4643 10.1937 27.3238C10.0734 27.4706 10.253 27.2567 10.2826 27.2223C10.356 27.138 10.431 27.0568 10.509 26.9772C10.6292 26.8554 10.7557 26.7383 10.8884 26.6306C10.9259 26.6009 11.0149 26.5026 10.8978 26.6212C10.9228 26.5947 10.968 26.5697 10.9961 26.5494C11.0789 26.4901 11.1648 26.4339 11.2522 26.3824C11.3318 26.334 11.413 26.2887 11.4957 26.2465C11.5379 26.2247 11.7939 26.1123 11.6206 26.1825C11.8049 26.1091 11.9907 26.0467 12.1827 25.9983C12.2733 25.9749 12.3638 25.9561 12.4559 25.939C12.4934 25.9327 12.5387 25.9202 12.5777 25.9187C12.395 25.9265 12.5371 25.9249 12.5855 25.9202C12.7807 25.903 12.9758 25.8984 13.171 25.9109C13.2116 25.914 13.2522 25.9187 13.2928 25.9202C13.491 25.9327 13.1757 25.8952 13.2974 25.9202C13.388 25.9374 13.4785 25.953 13.5675 25.9749C13.6472 25.9936 13.7252 26.017 13.8033 26.042C13.8517 26.0576 13.8985 26.0779 13.9469 26.0935C14 26.1138 13.986 26.1076 13.9032 26.0732C13.9313 26.0857 13.9594 26.0982 13.9875 26.1107C14.1358 26.1809 14.2795 26.2637 14.4153 26.3574C14.4247 26.3636 14.5683 26.476 14.4699 26.3948C14.3716 26.3137 14.5121 26.4323 14.5199 26.4386C14.5902 26.4994 14.6557 26.5619 14.7213 26.629C14.7728 26.6821 14.8228 26.7368 14.8696 26.793C14.8774 26.8023 14.9836 26.9475 14.9118 26.8445C14.84 26.7399 14.943 26.8913 14.9493 26.8991C15.0445 27.0365 15.1288 27.1802 15.2037 27.33C15.224 27.3722 15.2428 27.4143 15.2631 27.4565C15.3162 27.5611 15.1975 27.277 15.2599 27.4503C15.2849 27.5205 15.3115 27.5892 15.3349 27.661C15.3927 27.839 15.4317 28.0201 15.466 28.2043C15.4801 28.2762 15.4442 28.2949 15.4613 28.1637C15.4582 28.1934 15.4692 28.2434 15.4723 28.2746C15.4801 28.3589 15.4832 28.4417 15.4848 28.526C15.4863 28.6103 15.4848 28.693 15.4801 28.7773C15.4785 28.8148 15.4754 28.8523 15.4723 28.8882C15.4692 28.9256 15.466 28.9631 15.4613 28.999C15.466 28.9662 15.4692 28.935 15.4738 28.9022C15.4973 29.0459 15.4005 29.2722 15.3583 29.4112C15.3333 29.4939 15.3052 29.5767 15.2756 29.6579C15.2584 29.7032 15.2225 29.8327 15.2787 29.6594C15.2615 29.7141 15.2303 29.7672 15.2069 29.8171C15.135 29.9654 15.0539 30.1075 14.9664 30.2465C14.9196 30.3199 14.8696 30.3917 14.8197 30.4619C14.7291 30.5899 14.8353 30.451 14.8368 30.4432C14.8337 30.4697 14.7432 30.5572 14.726 30.5775C14.612 30.7102 14.4902 30.8366 14.3622 30.9553C14.3045 31.0084 14.2467 31.0599 14.1874 31.1099C14.1811 31.1145 14.0328 31.2363 14.1296 31.1582C14.2186 31.088 14.0625 31.2066 14.0437 31.2191C13.9001 31.3206 13.7518 31.4127 13.5988 31.497C13.5223 31.5392 13.4442 31.5782 13.3646 31.6157C13.3255 31.6344 13.285 31.6516 13.2459 31.6688C13.4114 31.5923 13.2163 31.6781 13.1928 31.6875C13.0117 31.7547 12.8275 31.8109 12.6386 31.8561C12.5558 31.8764 12.4715 31.8952 12.3872 31.9108C12.3341 31.9201 12.2811 31.9295 12.228 31.9389C12.1968 31.9436 12.164 31.9498 12.1327 31.9529C12.2233 31.9404 12.2389 31.9389 12.1796 31.9451C11.7768 31.9795 11.3787 31.9982 10.9727 31.9779C10.7744 31.967 10.5762 31.9498 10.3794 31.9279C10.3357 31.9233 10.292 31.917 10.2483 31.9123C10.4122 31.9326 10.292 31.9186 10.2592 31.9123C10.1499 31.8952 10.0407 31.878 9.93136 31.8593C9.14761 31.7219 8.37166 31.522 7.61133 31.2878C7.24443 31.1754 6.88066 31.0458 6.52469 30.9022C6.47629 30.8835 6.42789 30.8632 6.38105 30.8429C6.40603 30.8538 6.52937 30.9069 6.39511 30.8491C6.30924 30.8116 6.22337 30.7742 6.13906 30.7351C5.95951 30.654 5.78153 30.5681 5.60511 30.4775C4.91971 30.1294 4.26399 29.7235 3.64729 29.2629C3.60826 29.2332 3.42403 29.0896 3.5583 29.1957C3.47711 29.1317 3.39592 29.0662 3.31474 29.0006C3.1711 28.8819 3.02903 28.7602 2.89008 28.6353C2.59656 28.3714 2.31397 28.0951 2.04699 27.8047C1.79251 27.5299 1.55207 27.2442 1.32257 26.9475C1.07121 26.6228 0.479488 26.6634 0.218757 26.9475C-0.0966175 27.2957 -0.0482184 27.7094 0.218757 28.056Z" fill="#33404F"/>
<path d="M76.2693 29.1786H70.0461C69.0188 26.7524 67.5325 24.5166 65.684 22.5479V6.55276C59.8339 6.55276 54.7786 9.95475 52.3883 14.8883C49.9839 14.2794 47.4406 13.95 44.8084 13.95C29.9701 13.95 17.9406 24.3371 17.9406 37.1504C17.9406 43.6187 21.0069 49.4672 25.9514 53.6748V63.4123H36.7148V59.2781C39.269 59.9744 41.9872 60.3507 44.8084 60.3507C47.6296 60.3507 50.3477 59.9744 52.9019 59.2781V63.1766H63.6653V53.6732C66.4677 51.2876 68.6691 48.3758 70.0477 45.1222H76.2709C77.8228 45.1222 79.0812 43.8638 79.0812 42.3119V31.9873C79.0796 30.4354 77.8212 29.1786 76.2693 29.1786Z" fill="white" stroke="#33404F" stroke-width="2" stroke-miterlimit="10"/>
<path d="M58.7692 32.0575C59.7099 32.0575 60.4725 31.2949 60.4725 30.3541C60.4725 29.4134 59.7099 28.6508 58.7692 28.6508C57.8285 28.6508 57.0659 29.4134 57.0659 30.3541C57.0659 31.2949 57.8285 32.0575 58.7692 32.0575Z" fill="#33404F"/>
<path d="M58.7691 41.7748C61.2619 41.7748 63.2827 40.7396 63.2827 39.4626C63.2827 38.1856 61.2619 37.1504 58.7691 37.1504C56.2763 37.1504 54.2555 38.1856 54.2555 39.4626C54.2555 40.7396 56.2763 41.7748 58.7691 41.7748Z" fill="#67CB83"/>
<path d="M36.1981 21.5942C41.6921 18.8682 46.9005 19.0041 51.8638 21.5942" stroke="#33404F" stroke-width="2" stroke-miterlimit="10" stroke-linecap="round"/>
<path d="M44.0309 16.2941C48.2543 16.2941 51.678 12.8704 51.678 8.64706C51.678 4.4237 48.2543 1 44.0309 1C39.8076 1 36.3839 4.4237 36.3839 8.64706C36.3839 12.8704 39.8076 16.2941 44.0309 16.2941Z" fill="#67CB83" stroke="#33404F" stroke-width="2" stroke-miterlimit="10"/>
<path d="M44.031 12.7501C46.297 12.7501 48.134 10.9131 48.134 8.64709C48.134 6.38107 46.297 4.5441 44.031 4.5441C41.7649 4.5441 39.928 6.38107 39.928 8.64709C39.928 10.9131 41.7649 12.7501 44.031 12.7501Z" fill="#67CB83" stroke="#33404F" stroke-width="2" stroke-miterlimit="10"/>
<path d="M33.9029 57.4962H19.1708C18.8258 57.4962 18.5463 57.2167 18.5463 56.8717V55.1684C18.5463 54.8233 18.8258 54.5439 19.1708 54.5439H33.9029C34.2479 54.5439 34.5274 54.8233 34.5274 55.1684V56.8717C34.5274 57.2167 34.2464 57.4962 33.9029 57.4962Z" fill="#33404F"/>
<path d="M28.985 60.9796H14.2529C13.9079 60.9796 13.6284 60.7001 13.6284 60.355V58.6517C13.6284 58.3067 13.9079 58.0272 14.2529 58.0272H28.985C29.33 58.0272 29.6095 58.3067 29.6095 58.6517V60.355C29.6095 60.7001 29.33 60.9796 28.985 60.9796Z" fill="#67CB83" stroke="#33404F" stroke-width="2" stroke-miterlimit="10"/>
<path d="M33.9029 64.4629H19.1708C18.8258 64.4629 18.5463 64.1834 18.5463 63.8384V62.1351C18.5463 61.79 18.8258 61.5106 19.1708 61.5106H33.9029C34.2479 61.5106 34.5274 61.79 34.5274 62.1351V63.8384C34.5274 64.1834 34.2464 64.4629 33.9029 64.4629Z" fill="#33404F"/>
</g>
</g>
<defs>
<filter id="filter0_d_95_10454" x="-17" y="-31" width="348" height="133" filterUnits="userSpaceOnUse" color-interpolation-filters="sRGB">
<feFlood flood-opacity="0" result="BackgroundImageFix"/>
<feColorMatrix in="SourceAlpha" type="matrix" values="0 0 0 0 0 0 0 0 0 0 0 0 0 0 0 0 0 0 127 0" result="hardAlpha"/>
<feOffset dx="2" dy="3"/>
<feGaussianBlur stdDeviation="5"/>
<feComposite in2="hardAlpha" operator="out"/>
<feColorMatrix type="matrix" values="0 0 0 0 0 0 0 0 0 0 0 0 0 0 0 0 0 0 0.1 0"/>
<feBlend mode="normal" in2="BackgroundImageFix" result="effect1_dropShadow_95_10454"/>
<feBlend mode="normal" in="SourceGraphic" in2="effect1_dropShadow_95_10454" result="shape"/>
</filter>
<clipPath id="clip0_95_10454">
<rect width="360" height="959" fill="white" transform="translate(-25 -317)"/>
</clipPath>
</defs>
</svg>
